<svg width="82" height="115" viewBox="0 0 82 115" fill="none" xmlns="http://www.w3.org/2000/svg">
<g opacity="0.3">
<mask id="mask0" style="mask-type:alpha" maskUnits="userSpaceOnUse" x="10" y="0" width="12" height="11">
<path d="M15.7905 10.425C18.6781 10.425 21.0189 8.09121 21.0189 5.21245C21.0189 2.33368 18.6781 0 15.7905 0C12.903 0 10.5621 2.33368 10.5621 5.21245C10.5621 8.09121 12.903 10.425 15.7905 10.425Z" fill="url(#paint0_linear)"/>
</mask>
<g mask="url(#mask0)">
<path d="M15.7905 10.425C18.6781 10.425 21.0189 8.09121 21.0189 5.21245C21.0189 2.33368 18.6781 0 15.7905 0C12.903 0 10.5621 2.33368 10.5621 5.21245C10.5621 8.09121 12.903 10.425 15.7905 10.425Z" fill="url(#paint1_linear)"/>
</g>
<mask id="mask1" style="mask-type:alpha" maskUnits="userSpaceOnUse" x="40" y="0" width="12" height="11">
<path d="M46.0717 10.425C48.9592 10.425 51.3 8.09121 51.3 5.21245C51.3 2.33368 48.9592 0 46.0717 0C43.1841 0 40.8433 2.33368 40.8433 5.21245C40.8433 8.09121 43.1841 10.425 46.0717 10.425Z" fill="url(#paint2_linear)"/>
</mask>
<g mask="url(#mask1)">
<path d="M46.0717 10.425C48.9592 10.425 51.3 8.09121 51.3 5.21245C51.3 2.33368 48.9592 0 46.0717 0C43.1841 0 40.8433 2.33368 40.8433 5.21245C40.8433 8.09121 43.1841 10.425 46.0717 10.425Z" fill="url(#paint3_linear)"/>
</g>
<mask id="mask2" style="mask-type:alpha" maskUnits="userSpaceOnUse" x="71" y="0" width="11" height="11">
<path d="M76.3526 10.425C79.2402 10.425 81.581 8.09121 81.581 5.21245C81.581 2.33368 79.2402 0 76.3526 0C73.4651 0 71.1243 2.33368 71.1243 5.21245C71.1243 8.09121 73.4651 10.425 76.3526 10.425Z" fill="url(#paint4_linear)"/>
</mask>
<g mask="url(#mask2)">
<path d="M76.3526 10.425C79.2402 10.425 81.581 8.09121 81.581 5.21245C81.581 2.33368 79.2402 0 76.3526 0C73.4651 0 71.1243 2.33368 71.1243 5.21245C71.1243 8.09121 73.4651 10.425 76.3526 10.425Z" fill="url(#paint5_linear)"/>
</g>
<mask id="mask3" style="mask-type:alpha" maskUnits="userSpaceOnUse" x="10" y="26" width="12" height="11">
<path d="M15.7905 36.5958C18.6781 36.5958 21.0189 34.2621 21.0189 31.3833C21.0189 28.5046 18.6781 26.1709 15.7905 26.1709C12.903 26.1709 10.5621 28.5046 10.5621 31.3833C10.5621 34.2621 12.903 36.5958 15.7905 36.5958Z" fill="url(#paint6_linear)"/>
</mask>
<g mask="url(#mask3)">
<path d="M15.7905 36.5958C18.6781 36.5958 21.0189 34.2621 21.0189 31.3833C21.0189 28.5046 18.6781 26.1709 15.7905 26.1709C12.903 26.1709 10.5621 28.5046 10.5621 31.3833C10.5621 34.2621 12.903 36.5958 15.7905 36.5958Z" fill="url(#paint7_linear)"/>
</g>
<mask id="mask4" style="mask-type:alpha" maskUnits="userSpaceOnUse" x="40" y="26" width="12" height="11">
<path d="M46.0717 36.5958C48.9592 36.5958 51.3 34.2621 51.3 31.3833C51.3 28.5046 48.9592 26.1709 46.0717 26.1709C43.1841 26.1709 40.8433 28.5046 40.8433 31.3833C40.8433 34.2621 43.1841 36.5958 46.0717 36.5958Z" fill="url(#paint8_linear)"/>
</mask>
<g mask="url(#mask4)">
<path d="M46.0717 36.5958C48.9592 36.5958 51.3 34.2621 51.3 31.3833C51.3 28.5046 48.9592 26.1709 46.0717 26.1709C43.1841 26.1709 40.8433 28.5046 40.8433 31.3833C40.8433 34.2621 43.1841 36.5958 46.0717 36.5958Z" fill="url(#paint9_linear)"/>
</g>
<mask id="mask5" style="mask-type:alpha" maskUnits="userSpaceOnUse" x="71" y="26" width="11" height="11">
<path d="M76.3526 36.5958C79.2402 36.5958 81.581 34.2621 81.581 31.3833C81.581 28.5046 79.2402 26.1709 76.3526 26.1709C73.4651 26.1709 71.1243 28.5046 71.1243 31.3833C71.1243 34.2621 73.4651 36.5958 76.3526 36.5958Z" fill="url(#paint10_linear)"/>
</mask>
<g mask="url(#mask5)">
<path d="M76.3526 36.5958C79.2402 36.5958 81.581 34.2621 81.581 31.3833C81.581 28.5046 79.2402 26.1709 76.3526 26.1709C73.4651 26.1709 71.1243 28.5046 71.1243 31.3833C71.1243 34.2621 73.4651 36.5958 76.3526 36.5958Z" fill="url(#paint11_linear)"/>
</g>
<mask id="mask6" style="mask-type:alpha" maskUnits="userSpaceOnUse" x="10" y="52" width="12" height="11">
<path d="M15.7905 62.7126C18.6781 62.7126 21.0189 60.3789 21.0189 57.5001C21.0189 54.6213 18.6781 52.2876 15.7905 52.2876C12.903 52.2876 10.5621 54.6213 10.5621 57.5001C10.5621 60.3789 12.903 62.7126 15.7905 62.7126Z" fill="url(#paint12_linear)"/>
</mask>
<g mask="url(#mask6)">
<path d="M15.7905 62.7126C18.6781 62.7126 21.0189 60.3789 21.0189 57.5001C21.0189 54.6213 18.6781 52.2876 15.7905 52.2876C12.903 52.2876 10.5621 54.6213 10.5621 57.5001C10.5621 60.3789 12.903 62.7126 15.7905 62.7126Z" fill="url(#paint13_linear)"/>
</g>
<mask id="mask7" style="mask-type:alpha" maskUnits="userSpaceOnUse" x="40" y="52" width="12" height="11">
<path d="M46.0717 62.7126C48.9592 62.7126 51.3 60.3789 51.3 57.5001C51.3 54.6213 48.9592 52.2876 46.0717 52.2876C43.1841 52.2876 40.8433 54.6213 40.8433 57.5001C40.8433 60.3789 43.1841 62.7126 46.0717 62.7126Z" fill="url(#paint14_linear)"/>
</mask>
<g mask="url(#mask7)">
<path d="M46.0717 62.7126C48.9592 62.7126 51.3 60.3789 51.3 57.5001C51.3 54.6213 48.9592 52.2876 46.0717 52.2876C43.1841 52.2876 40.8433 54.6213 40.8433 57.5001C40.8433 60.3789 43.1841 62.7126 46.0717 62.7126Z" fill="url(#paint15_linear)"/>
</g>
<mask id="mask8" style="mask-type:alpha" maskUnits="userSpaceOnUse" x="71" y="52" width="11" height="11">
<path d="M76.3526 62.7126C79.2402 62.7126 81.581 60.3789 81.581 57.5001C81.581 54.6213 79.2402 52.2876 76.3526 52.2876C73.4651 52.2876 71.1243 54.6213 71.1243 57.5001C71.1243 60.3789 73.4651 62.7126 76.3526 62.7126Z" fill="url(#paint16_linear)"/>
</mask>
<g mask="url(#mask8)">
<path d="M76.3526 62.7126C79.2402 62.7126 81.581 60.3789 81.581 57.5001C81.581 54.6213 79.2402 52.2876 76.3526 52.2876C73.4651 52.2876 71.1243 54.6213 71.1243 57.5001C71.1243 60.3789 73.4651 62.7126 76.3526 62.7126Z" fill="url(#paint17_linear)"/>
</g>
<mask id="mask9" style="mask-type:alpha" maskUnits="userSpaceOnUse" x="10" y="78" width="12" height="11">
<path d="M15.7905 88.8835C18.6781 88.8835 21.0189 86.5497 21.0189 83.6709C21.0189 80.7922 18.6781 78.4585 15.7905 78.4585C12.903 78.4585 10.5621 80.7922 10.5621 83.6709C10.5621 86.5497 12.903 88.8835 15.7905 88.8835Z" fill="url(#paint18_linear)"/>
</mask>
<g mask="url(#mask9)">
<path d="M15.7905 88.8835C18.6781 88.8835 21.0189 86.5497 21.0189 83.6709C21.0189 80.7922 18.6781 78.4585 15.7905 78.4585C12.903 78.4585 10.5621 80.7922 10.5621 83.6709C10.5621 86.5497 12.903 88.8835 15.7905 88.8835Z" fill="url(#paint19_linear)"/>
</g>
<mask id="mask10" style="mask-type:alpha" maskUnits="userSpaceOnUse" x="40" y="78" width="12" height="11">
<path d="M46.0717 88.8835C48.9592 88.8835 51.3 86.5497 51.3 83.6709C51.3 80.7922 48.9592 78.4585 46.0717 78.4585C43.1841 78.4585 40.8433 80.7922 40.8433 83.6709C40.8433 86.5497 43.1841 88.8835 46.0717 88.8835Z" fill="url(#paint20_linear)"/>
</mask>
<g mask="url(#mask10)">
<path d="M46.0717 88.8835C48.9592 88.8835 51.3 86.5497 51.3 83.6709C51.3 80.7922 48.9592 78.4585 46.0717 78.4585C43.1841 78.4585 40.8433 80.7922 40.8433 83.6709C40.8433 86.5497 43.1841 88.8835 46.0717 88.8835Z" fill="url(#paint21_linear)"/>
</g>
<mask id="mask11" style="mask-type:alpha" maskUnits="userSpaceOnUse" x="71" y="78" width="11" height="11">
<path d="M76.3526 88.8835C79.2402 88.8835 81.581 86.5497 81.581 83.6709C81.581 80.7922 79.2402 78.4585 76.3526 78.4585C73.4651 78.4585 71.1243 80.7922 71.1243 83.6709C71.1243 86.5497 73.4651 88.8835 76.3526 88.8835Z" fill="url(#paint22_linear)"/>
</mask>
<g mask="url(#mask11)">
<path d="M76.3526 88.8835C79.2402 88.8835 81.581 86.5497 81.581 83.6709C81.581 80.7922 79.2402 78.4585 76.3526 78.4585C73.4651 78.4585 71.1243 80.7922 71.1243 83.6709C71.1243 86.5497 73.4651 88.8835 76.3526 88.8835Z" fill="url(#paint23_linear)"/>
</g>
<mask id="mask12" style="mask-type:alpha" maskUnits="userSpaceOnUse" x="10" y="104" width="12" height="11">
<path d="M15.7905 115C18.6781 115 21.0189 112.666 21.0189 109.787C21.0189 106.909 18.6781 104.575 15.7905 104.575C12.903 104.575 10.5621 106.909 10.5621 109.787C10.5621 112.666 12.903 115 15.7905 115Z" fill="url(#paint24_linear)"/>
</mask>
<g mask="url(#mask12)">
<path d="M15.7905 115C18.6781 115 21.0189 112.666 21.0189 109.787C21.0189 106.909 18.6781 104.575 15.7905 104.575C12.903 104.575 10.5621 106.909 10.5621 109.787C10.5621 112.666 12.903 115 15.7905 115Z" fill="url(#paint25_linear)"/>
</g>
<mask id="mask13" style="mask-type:alpha" maskUnits="userSpaceOnUse" x="40" y="104" width="12" height="11">
<path d="M46.0717 115C48.9592 115 51.3 112.666 51.3 109.787C51.3 106.909 48.9592 104.575 46.0717 104.575C43.1841 104.575 40.8433 106.909 40.8433 109.787C40.8433 112.666 43.1841 115 46.0717 115Z" fill="url(#paint26_linear)"/>
</mask>
<g mask="url(#mask13)">
<path d="M46.0717 115C48.9592 115 51.3 112.666 51.3 109.787C51.3 106.909 48.9592 104.575 46.0717 104.575C43.1841 104.575 40.8433 106.909 40.8433 109.787C40.8433 112.666 43.1841 115 46.0717 115Z" fill="url(#paint27_linear)"/>
</g>
<mask id="mask14" style="mask-type:alpha" maskUnits="userSpaceOnUse" x="71" y="104" width="11" height="11">
<path d="M76.3526 115C79.2402 115 81.581 112.666 81.581 109.787C81.581 106.909 79.2402 104.575 76.3526 104.575C73.4651 104.575 71.1243 106.909 71.1243 109.787C71.1243 112.666 73.4651 115 76.3526 115Z" fill="url(#paint28_linear)"/>
</mask>
<g mask="url(#mask14)">
<path d="M76.3526 115C79.2402 115 81.581 112.666 81.581 109.787C81.581 106.909 79.2402 104.575 76.3526 104.575C73.4651 104.575 71.1243 106.909 71.1243 109.787C71.1243 112.666 73.4651 115 76.3526 115Z" fill="url(#paint29_linear)"/>
</g>
</g>
<defs>
<linearGradient id="paint0_linear" x1="57.4049" y1="110.551" x2="-13.9967" y2="-71.2526" gradientUnits="userSpaceOnUse">
<stop/>
<stop offset="1" stop-color="white"/>
</linearGradient>
<linearGradient id="paint1_linear" x1="57.4049" y1="110.551" x2="-13.9967" y2="-71.2526" gradientUnits="userSpaceOnUse">
<stop stop-color="#97C3F9"/>
<stop offset="1" stop-color="#93C1F9"/>
</linearGradient>
<linearGradient id="paint2_linear" x1="83.6092" y1="100.259" x2="12.2076" y2="-81.5444" gradientUnits="userSpaceOnUse">
<stop/>
<stop offset="1" stop-color="white"/>
</linearGradient>
<linearGradient id="paint3_linear" x1="83.6092" y1="100.259" x2="12.2076" y2="-81.5444" gradientUnits="userSpaceOnUse">
<stop stop-color="#97C3F9"/>
<stop offset="1" stop-color="#93C1F9"/>
</linearGradient>
<linearGradient id="paint4_linear" x1="109.813" y1="89.9679" x2="38.4119" y2="-91.8359" gradientUnits="userSpaceOnUse">
<stop/>
<stop offset="1" stop-color="white"/>
</linearGradient>
<linearGradient id="paint5_linear" x1="109.813" y1="89.9679" x2="38.4119" y2="-91.8359" gradientUnits="userSpaceOnUse">
<stop stop-color="#97C3F9"/>
<stop offset="1" stop-color="#93C1F9"/>
</linearGradient>
<linearGradient id="paint6_linear" x1="48.4624" y1="114.062" x2="-22.9379" y2="-67.7404" gradientUnits="userSpaceOnUse">
<stop/>
<stop offset="1" stop-color="white"/>
</linearGradient>
<linearGradient id="paint7_linear" x1="48.4624" y1="114.062" x2="-22.9379" y2="-67.7404" gradientUnits="userSpaceOnUse">
<stop stop-color="#97C3F9"/>
<stop offset="1" stop-color="#93C1F9"/>
</linearGradient>
<linearGradient id="paint8_linear" x1="74.6668" y1="103.771" x2="3.2664" y2="-78.0318" gradientUnits="userSpaceOnUse">
<stop/>
<stop offset="1" stop-color="white"/>
</linearGradient>
<linearGradient id="paint9_linear" x1="74.6668" y1="103.771" x2="3.2664" y2="-78.0318" gradientUnits="userSpaceOnUse">
<stop stop-color="#97C3F9"/>
<stop offset="1" stop-color="#93C1F9"/>
</linearGradient>
<linearGradient id="paint10_linear" x1="100.871" y1="93.4793" x2="29.4707" y2="-88.3232" gradientUnits="userSpaceOnUse">
<stop/>
<stop offset="1" stop-color="white"/>
</linearGradient>
<linearGradient id="paint11_linear" x1="100.871" y1="93.4793" x2="29.4707" y2="-88.3232" gradientUnits="userSpaceOnUse">
<stop stop-color="#97C3F9"/>
<stop offset="1" stop-color="#93C1F9"/>
</linearGradient>
<linearGradient id="paint12_linear" x1="39.5201" y1="117.575" x2="-31.8815" y2="-64.2287" gradientUnits="userSpaceOnUse">
<stop/>
<stop offset="1" stop-color="white"/>
</linearGradient>
<linearGradient id="paint13_linear" x1="39.5201" y1="117.575" x2="-31.8815" y2="-64.2287" gradientUnits="userSpaceOnUse">
<stop stop-color="#97C3F9"/>
<stop offset="1" stop-color="#93C1F9"/>
</linearGradient>
<linearGradient id="paint14_linear" x1="65.7244" y1="107.283" x2="-5.67722" y2="-74.5204" gradientUnits="userSpaceOnUse">
<stop/>
<stop offset="1" stop-color="white"/>
</linearGradient>
<linearGradient id="paint15_linear" x1="65.7244" y1="107.283" x2="-5.67722" y2="-74.5204" gradientUnits="userSpaceOnUse">
<stop stop-color="#97C3F9"/>
<stop offset="1" stop-color="#93C1F9"/>
</linearGradient>
<linearGradient id="paint16_linear" x1="91.9287" y1="96.992" x2="20.5271" y2="-84.8119" gradientUnits="userSpaceOnUse">
<stop/>
<stop offset="1" stop-color="white"/>
</linearGradient>
<linearGradient id="paint17_linear" x1="91.9287" y1="96.992" x2="20.5271" y2="-84.8119" gradientUnits="userSpaceOnUse">
<stop stop-color="#97C3F9"/>
<stop offset="1" stop-color="#93C1F9"/>
</linearGradient>
<linearGradient id="paint18_linear" x1="30.5777" y1="121.087" x2="-40.8239" y2="-60.7167" gradientUnits="userSpaceOnUse">
<stop/>
<stop offset="1" stop-color="white"/>
</linearGradient>
<linearGradient id="paint19_linear" x1="30.5777" y1="121.087" x2="-40.8239" y2="-60.7167" gradientUnits="userSpaceOnUse">
<stop stop-color="#97C3F9"/>
<stop offset="1" stop-color="#93C1F9"/>
</linearGradient>
<linearGradient id="paint20_linear" x1="56.7821" y1="110.796" x2="-14.6196" y2="-71.0083" gradientUnits="userSpaceOnUse">
<stop/>
<stop offset="1" stop-color="white"/>
</linearGradient>
<linearGradient id="paint21_linear" x1="56.7821" y1="110.796" x2="-14.6196" y2="-71.0083" gradientUnits="userSpaceOnUse">
<stop stop-color="#97C3F9"/>
<stop offset="1" stop-color="#93C1F9"/>
</linearGradient>
<linearGradient id="paint22_linear" x1="82.9863" y1="100.504" x2="11.5847" y2="-81.2999" gradientUnits="userSpaceOnUse">
<stop/>
<stop offset="1" stop-color="white"/>
</linearGradient>
<linearGradient id="paint23_linear" x1="82.9863" y1="100.504" x2="11.5847" y2="-81.2999" gradientUnits="userSpaceOnUse">
<stop stop-color="#97C3F9"/>
<stop offset="1" stop-color="#93C1F9"/>
</linearGradient>
<linearGradient id="paint24_linear" x1="21.6353" y1="124.599" x2="-49.7663" y2="-57.2048" gradientUnits="userSpaceOnUse">
<stop/>
<stop offset="1" stop-color="white"/>
</linearGradient>
<linearGradient id="paint25_linear" x1="21.6353" y1="124.599" x2="-49.7663" y2="-57.2048" gradientUnits="userSpaceOnUse">
<stop stop-color="#97C3F9"/>
<stop offset="1" stop-color="#93C1F9"/>
</linearGradient>
<linearGradient id="paint26_linear" x1="47.8397" y1="114.307" x2="-23.5619" y2="-67.4964" gradientUnits="userSpaceOnUse">
<stop/>
<stop offset="1" stop-color="white"/>
</linearGradient>
<linearGradient id="paint27_linear" x1="47.8397" y1="114.307" x2="-23.5619" y2="-67.4964" gradientUnits="userSpaceOnUse">
<stop stop-color="#97C3F9"/>
<stop offset="1" stop-color="#93C1F9"/>
</linearGradient>
<linearGradient id="paint28_linear" x1="74.044" y1="104.016" x2="2.64237" y2="-77.7879" gradientUnits="userSpaceOnUse">
<stop/>
<stop offset="1" stop-color="white"/>
</linearGradient>
<linearGradient id="paint29_linear" x1="74.044" y1="104.016" x2="2.64237" y2="-77.7879" gradientUnits="userSpaceOnUse">
<stop stop-color="#97C3F9"/>
<stop offset="1" stop-color="#93C1F9"/>
</linearGradient>
</defs>
</svg>
