<svg width="700" height="703" viewBox="0 0 700 703" fill="none" xmlns="http://www.w3.org/2000/svg">
<g clip-path="url(#clip0_5:950)">
<path fill-rule="evenodd" clip-rule="evenodd" d="M223.235 433.101C253.692 416.812 286.955 422.071 322.693 440.307C356.606 455.933 381.094 443.188 399.793 409.466C425.652 355.708 384.942 303.097 289.57 257.266C211.094 218.987 156.293 232.903 114.758 281.74C45.3944 366.865 130.538 481.823 223.235 433.101Z" fill="url(#paint0_linear_5:950)"/>
<path fill-rule="evenodd" clip-rule="evenodd" d="M250.461 467.748C232.225 472.914 200.79 475.041 160.727 475.408C123.547 476.012 108.71 480.112 109.37 486.9C113.843 497.374 175.393 501.811 280.893 500.399C367.987 499.325 408.491 492.377 420.053 481.273C437.579 462.186 306.388 452.156 250.461 467.748Z" fill="url(#paint1_linear_5:950)"/>
<g clip-path="url(#clip1_5:950)">
<path fill-rule="evenodd" clip-rule="evenodd" d="M80.8632 445.734C93.2801 440.58 105.741 443.014 108.707 451.173C111.673 459.332 103.993 470.101 91.5758 475.256C79.181 480.388 66.7199 477.953 63.754 469.816C60.7881 461.657 68.4463 450.888 80.8632 445.734Z" fill="#E8F2FB"/>
</g>
</g>
<path d="M540.907 520.624C482.006 549.417 451.476 470.229 343.179 457.081C249.375 445.704 210.515 498.118 147.552 470.021C101.546 449.505 69.1609 399.003 74.1296 335.143C79.6014 264.729 128.275 209.98 140.518 196.864C195.365 138.007 258.981 120.589 281.184 114.827C372.639 91.1134 436.156 126.525 466.64 143.494C581.118 207.284 651.901 357.689 590.457 466.827C582.425 481.12 567.499 507.619 540.907 520.624Z" fill="url(#paint2_linear_5:950)"/>
<mask id="mask0_5:950" style="mask-type:alpha" maskUnits="userSpaceOnUse" x="145" y="224" width="220" height="219">
<path d="M365 224H145V443H365V224Z" fill="url(#paint3_linear_5:950)"/>
</mask>
<g mask="url(#mask0_5:950)">
<path fill-rule="evenodd" clip-rule="evenodd" d="M182.488 463.354C182.935 462.936 183.62 462.966 184.037 463.384C184.454 463.831 184.424 464.517 184.007 464.935C183.56 465.353 182.875 465.323 182.458 464.905C182.041 464.458 182.041 463.771 182.488 463.354ZM185.198 460.787C185.645 460.37 186.33 460.399 186.747 460.817C187.164 461.265 187.134 461.951 186.717 462.369C186.27 462.787 185.585 462.757 185.168 462.339C184.751 461.921 184.751 461.175 185.198 460.787ZM187.789 458.311C188.236 457.893 188.921 457.923 189.338 458.34C189.755 458.788 189.725 459.474 189.308 459.892C188.861 460.31 188.176 460.28 187.759 459.862C187.342 459.415 187.342 458.728 187.789 458.311ZM190.559 455.655C191.006 455.237 191.691 455.267 192.107 455.685C192.524 456.132 192.495 456.819 192.078 457.236C191.631 457.654 190.946 457.624 190.529 457.207C190.112 456.759 190.142 456.073 190.559 455.655ZM193.15 453.208C193.597 452.79 194.282 452.82 194.699 453.238C195.115 453.685 195.086 454.372 194.669 454.789C194.222 455.207 193.537 455.177 193.12 454.76C192.703 454.312 192.703 453.626 193.15 453.208ZM195.86 450.642C196.307 450.224 196.992 450.254 197.409 450.671C197.826 451.119 197.796 451.805 197.379 452.223C196.932 452.641 196.247 452.611 195.83 452.193C195.413 451.746 195.413 451.03 195.86 450.642ZM198.451 448.165C198.898 447.747 199.583 447.777 200 448.195C200.417 448.642 200.387 449.329 199.97 449.746C199.523 450.164 198.838 450.134 198.421 449.717C198.004 449.269 198.004 448.583 198.451 448.165ZM201.161 445.569C201.608 445.151 202.293 445.181 202.71 445.599C203.127 446.046 203.097 446.732 202.68 447.15C202.233 447.568 201.548 447.538 201.131 447.12C200.715 446.673 200.744 445.986 201.161 445.569ZM203.752 443.122C204.199 442.704 204.884 442.734 205.301 443.152C205.718 443.599 205.688 444.286 205.271 444.703C204.824 445.121 204.139 445.091 203.722 444.673C203.306 444.226 203.335 443.54 203.752 443.122ZM206.462 440.526C206.909 440.108 207.594 440.138 208.011 440.555C208.428 441.003 208.398 441.689 207.981 442.107C207.535 442.525 206.85 442.495 206.433 442.077C206.016 441.63 206.046 440.943 206.462 440.526ZM209.053 438.079C209.5 437.661 210.185 437.691 210.602 438.109C211.019 438.556 210.989 439.242 210.572 439.66C210.126 440.078 209.441 440.048 209.024 439.63C208.607 439.183 208.607 438.496 209.053 438.079ZM211.823 435.423C212.27 435.005 212.955 435.035 213.372 435.453C213.789 435.9 213.759 436.587 213.342 437.004C212.895 437.422 212.21 437.392 211.793 436.975C211.376 436.527 211.406 435.841 211.823 435.423ZM214.414 432.976C214.861 432.558 215.546 432.588 215.963 433.006C216.38 433.453 216.35 434.14 215.933 434.558C215.486 434.975 214.801 434.945 214.384 434.528C213.968 434.08 213.997 433.394 214.414 432.976ZM217.124 430.38C217.571 429.962 218.256 429.992 218.673 430.41C219.09 430.857 219.06 431.544 218.643 431.961C218.197 432.379 217.512 432.349 217.095 431.932C216.678 431.484 216.707 430.798 217.124 430.38ZM219.715 427.933C220.162 427.515 220.847 427.545 221.264 427.963C221.681 428.41 221.651 429.097 221.234 429.514C220.788 429.932 220.103 429.902 219.686 429.485C219.269 429.037 219.269 428.351 219.715 427.933ZM222.515 425.277C222.962 424.859 223.647 424.889 224.064 425.307C224.481 425.755 224.451 426.441 224.034 426.859C223.587 427.276 222.902 427.247 222.485 426.829C222.068 426.381 222.068 425.695 222.515 425.277ZM225.106 422.83C225.553 422.412 226.238 422.442 226.655 422.86C227.072 423.308 227.042 423.994 226.625 424.412C226.178 424.829 225.493 424.8 225.076 424.382C224.63 423.934 224.659 423.218 225.106 422.83ZM227.816 420.234C228.263 419.816 228.948 419.846 229.365 420.264C229.782 420.711 229.752 421.398 229.335 421.816C228.888 422.233 228.203 422.204 227.786 421.786C227.34 421.338 227.369 420.652 227.816 420.234ZM230.377 417.787C230.824 417.369 231.509 417.399 231.926 417.817C232.343 418.265 232.313 418.951 231.896 419.369C231.45 419.786 230.765 419.757 230.348 419.339C229.931 418.891 229.96 418.205 230.377 417.787ZM233.177 415.131C233.624 414.714 234.309 414.743 234.726 415.161C235.143 415.609 235.113 416.295 234.696 416.713C234.249 417.131 233.564 417.101 233.147 416.683C232.73 416.235 232.73 415.549 233.177 415.131ZM235.768 412.684C236.215 412.267 236.9 412.296 237.317 412.714C237.734 413.162 237.704 413.848 237.287 414.266C236.84 414.684 236.155 414.654 235.738 414.236C235.291 413.788 235.321 413.102 235.768 412.684ZM238.478 410.088C238.925 409.67 239.61 409.7 240.027 410.118C240.444 410.566 240.414 411.252 239.997 411.67C239.55 412.088 238.865 412.058 238.448 411.64C238.002 411.192 238.031 410.506 238.478 410.088ZM241.039 407.641C241.486 407.224 242.171 407.253 242.588 407.671C243.005 408.119 242.975 408.805 242.558 409.223C242.112 409.641 241.427 409.611 241.01 409.193C240.593 408.745 240.622 408.059 241.039 407.641ZM243.779 405.045C244.226 404.627 244.911 404.657 245.328 405.075C245.745 405.523 245.715 406.209 245.298 406.627C244.852 407.045 244.167 407.015 243.75 406.597C243.333 406.149 243.333 405.463 243.779 405.045ZM246.37 402.568C246.817 402.151 247.502 402.18 247.919 402.598C248.336 403.046 248.306 403.732 247.889 404.15C247.443 404.568 246.758 404.538 246.341 404.12C245.924 403.673 245.924 402.986 246.37 402.568ZM249.081 400.002C249.527 399.584 250.212 399.614 250.629 400.032C251.046 400.48 251.016 401.166 250.599 401.584C250.153 402.001 249.468 401.972 249.051 401.554C248.634 401.106 248.634 400.42 249.081 400.002ZM251.672 397.555C252.118 397.137 252.803 397.167 253.22 397.585C253.637 398.033 253.607 398.719 253.19 399.137C252.744 399.555 252.059 399.525 251.642 399.107C251.195 398.659 251.225 397.973 251.672 397.555ZM254.441 394.899C254.888 394.482 255.573 394.511 255.99 394.929C256.407 395.377 256.377 396.063 255.96 396.481C255.513 396.899 254.828 396.869 254.412 396.451C253.995 396.003 253.995 395.317 254.441 394.899ZM257.032 392.452C257.479 392.035 258.164 392.065 258.581 392.482C258.998 392.93 258.968 393.616 258.551 394.034C258.105 394.452 257.42 394.422 257.003 394.004C256.586 393.527 256.586 392.84 257.032 392.452ZM259.743 389.856C260.189 389.439 260.874 389.468 261.291 389.886C261.708 390.334 261.678 391.02 261.261 391.438C260.815 391.856 260.13 391.826 259.713 391.408C259.296 390.96 259.296 390.274 259.743 389.856ZM262.334 387.409C262.78 386.992 263.465 387.021 263.882 387.439C264.299 387.887 264.269 388.573 263.852 388.991C263.406 389.409 262.721 389.379 262.304 388.961C261.887 388.514 261.887 387.827 262.334 387.409ZM265.103 384.783C265.55 384.366 266.235 384.396 266.652 384.813C267.069 385.261 267.039 385.947 266.622 386.365C266.175 386.783 265.49 386.753 265.074 386.335C264.627 385.888 264.657 385.201 265.103 384.783ZM267.665 382.307C268.111 381.889 268.796 381.919 269.213 382.337C269.63 382.784 269.6 383.47 269.183 383.888C268.737 384.306 268.052 384.276 267.635 383.858C267.218 383.411 267.248 382.724 267.665 382.307ZM270.375 379.74C270.821 379.323 271.506 379.352 271.923 379.77C272.34 380.218 272.311 380.904 271.894 381.322C271.447 381.74 270.762 381.71 270.345 381.292C269.928 380.844 269.958 380.158 270.375 379.74ZM272.966 377.264C273.412 376.846 274.097 376.876 274.514 377.293C274.931 377.741 274.902 378.427 274.485 378.845C274.038 379.263 273.353 379.233 272.936 378.815C272.519 378.368 272.549 377.681 272.966 377.264ZM275.765 374.638C276.212 374.22 276.897 374.25 277.314 374.667C277.731 375.115 277.701 375.801 277.284 376.219C276.837 376.637 276.152 376.607 275.735 376.189C275.289 375.742 275.319 375.055 275.765 374.638ZM278.327 372.161C278.773 371.743 279.458 371.773 279.875 372.191C280.292 372.638 280.262 373.325 279.845 373.742C279.399 374.16 278.714 374.13 278.297 373.713C277.88 373.265 277.91 372.579 278.327 372.161ZM281.037 369.595C281.483 369.177 282.168 369.207 282.585 369.624C283.002 370.072 282.973 370.758 282.556 371.176C282.109 371.594 281.424 371.564 281.007 371.146C280.59 370.699 280.62 370.012 281.037 369.595ZM283.628 367.148C284.074 366.73 284.759 366.76 285.176 367.177C285.593 367.625 285.564 368.311 285.147 368.729C284.7 369.147 284.015 369.117 283.598 368.699C283.181 368.222 283.211 367.536 283.628 367.148ZM286.368 364.552C286.814 364.134 287.499 364.164 287.916 364.581C288.333 365.029 288.304 365.715 287.887 366.133C287.44 366.551 286.755 366.521 286.338 366.103C285.921 365.656 285.921 364.939 286.368 364.552ZM288.959 362.075C289.405 361.657 290.09 361.687 290.507 362.105C290.924 362.552 290.895 363.239 290.478 363.656C290.031 364.074 289.346 364.044 288.929 363.626C288.482 363.179 288.512 362.493 288.959 362.075ZM291.669 359.508C292.116 359.091 292.801 359.121 293.218 359.538C293.634 359.986 293.605 360.672 293.188 361.09C292.741 361.508 292.056 361.478 291.639 361.06C291.192 360.613 291.222 359.926 291.669 359.508ZM294.23 357.032C294.677 356.614 295.362 356.644 295.779 357.062C296.196 357.509 296.166 358.195 295.749 358.613C295.302 359.031 294.617 359.001 294.2 358.583C293.783 358.136 293.813 357.449 294.23 357.032ZM297.03 354.406C297.476 353.988 298.161 354.018 298.578 354.436C298.995 354.883 298.965 355.57 298.549 355.987C298.102 356.405 297.417 356.375 297 355.957C296.583 355.51 296.583 354.824 297.03 354.406ZM299.621 351.929C300.067 351.511 300.752 351.541 301.169 351.959C301.586 352.406 301.557 353.093 301.14 353.511C300.693 353.928 300.008 353.898 299.591 353.481C299.174 353.033 299.174 352.347 299.621 351.929ZM302.331 349.363C302.778 348.945 303.463 348.975 303.88 349.393C304.296 349.84 304.267 350.526 303.85 350.944C303.403 351.362 302.718 351.332 302.301 350.914C301.854 350.467 301.884 349.78 302.331 349.363ZM304.922 346.886C305.369 346.468 306.054 346.498 306.471 346.916C306.888 347.363 306.858 348.05 306.441 348.467C305.994 348.885 305.309 348.855 304.892 348.438C304.445 347.99 304.475 347.304 304.922 346.886ZM307.692 344.26C308.138 343.842 308.823 343.872 309.24 344.29C309.657 344.737 309.627 345.424 309.211 345.841C308.764 346.259 308.079 346.229 307.662 345.812C307.245 345.334 307.275 344.648 307.692 344.26ZM310.283 341.783C310.729 341.365 311.414 341.395 311.831 341.813C312.248 342.261 312.219 342.947 311.802 343.365C311.355 343.782 310.67 343.753 310.253 343.335C309.836 342.887 309.836 342.201 310.283 341.783ZM312.993 339.217C313.44 338.799 314.125 338.829 314.541 339.247C314.958 339.694 314.929 340.381 314.512 340.798C314.065 341.216 313.38 341.186 312.963 340.769C312.546 340.321 312.546 339.635 312.993 339.217ZM315.584 336.74C316.031 336.322 316.716 336.352 317.133 336.77C317.549 337.218 317.52 337.904 317.103 338.322C316.656 338.739 315.971 338.71 315.554 338.292C315.137 337.844 315.137 337.158 315.584 336.74ZM318.354 334.114C318.8 333.696 319.485 333.726 319.902 334.144C320.319 334.592 320.289 335.278 319.872 335.696C319.426 336.113 318.741 336.084 318.324 335.666C317.907 335.218 317.937 334.502 318.354 334.114ZM320.945 331.637C321.391 331.22 322.076 331.249 322.493 331.667C322.91 332.115 322.88 332.801 322.464 333.219C322.017 333.637 321.332 333.607 320.915 333.189C320.498 332.741 320.528 332.055 320.945 331.637ZM323.655 329.071C324.102 328.653 324.787 328.683 325.203 329.101C325.62 329.549 325.591 330.235 325.174 330.653C324.727 331.07 324.042 331.041 323.625 330.623C323.208 330.175 323.208 329.489 323.655 329.071ZM326.246 326.594C326.693 326.177 327.378 326.206 327.794 326.624C328.211 327.072 328.182 327.758 327.765 328.176C327.318 328.594 326.633 328.564 326.216 328.146C325.799 327.698 325.799 327.012 326.246 326.594ZM328.956 323.998C329.403 323.58 330.088 323.61 330.505 324.028C330.922 324.476 330.892 325.162 330.475 325.58C330.028 325.998 329.343 325.968 328.926 325.55C328.509 325.102 328.539 324.416 328.956 323.998ZM331.547 321.551C331.994 321.133 332.679 321.163 333.096 321.581C333.513 322.029 333.483 322.715 333.066 323.133C332.619 323.551 331.934 323.521 331.517 323.103C331.1 322.655 331.13 321.969 331.547 321.551ZM334.257 318.985C334.704 318.567 335.389 318.597 335.806 319.015C336.223 319.462 336.193 320.149 335.776 320.567C335.329 320.984 334.644 320.954 334.227 320.537C333.81 320.089 333.84 319.373 334.257 318.985ZM336.848 316.508C337.295 316.09 337.98 316.12 338.397 316.538C338.814 316.986 338.784 317.672 338.367 318.09C337.92 318.508 337.235 318.478 336.818 318.06C336.402 317.612 336.431 316.926 336.848 316.508ZM339.648 313.852C340.094 313.435 340.779 313.464 341.196 313.882C341.613 314.33 341.584 315.016 341.167 315.434C340.72 315.852 340.035 315.822 339.618 315.404C339.171 314.956 339.201 314.27 339.648 313.852ZM342.209 311.405C342.656 310.988 343.341 311.018 343.758 311.435C344.175 311.883 344.145 312.569 343.728 312.987C343.281 313.405 342.596 313.375 342.179 312.957C341.762 312.51 341.792 311.823 342.209 311.405ZM344.919 308.839C345.366 308.421 346.051 308.451 346.468 308.869C346.885 309.317 346.855 310.003 346.438 310.421C345.991 310.838 345.306 310.809 344.889 310.391C344.472 309.943 344.502 309.257 344.919 308.839ZM347.51 306.362C347.957 305.945 348.642 305.974 349.059 306.392C349.476 306.84 349.446 307.526 349.029 307.944C348.582 308.362 347.897 308.332 347.48 307.914C347.063 307.466 347.093 306.78 347.51 306.362ZM180.552 469.113C180.999 468.695 181.684 468.725 182.101 469.143C182.518 469.59 182.488 470.277 182.071 470.694C181.624 471.112 180.939 471.082 180.522 470.665C180.105 470.217 180.135 469.531 180.552 469.113ZM183.143 466.636C183.59 466.218 184.275 466.248 184.692 466.666C185.109 467.114 185.079 467.8 184.662 468.218C184.215 468.635 183.53 468.606 183.113 468.188C182.696 467.74 182.726 467.054 183.143 466.636ZM185.853 464.07C186.3 463.652 186.985 463.682 187.402 464.1C187.819 464.547 187.789 465.234 187.372 465.651C186.925 466.069 186.24 466.039 185.823 465.622C185.407 465.174 185.436 464.488 185.853 464.07ZM188.444 461.623C188.891 461.205 189.576 461.235 189.993 461.653C190.41 462.1 190.38 462.787 189.963 463.204C189.516 463.622 188.831 463.592 188.415 463.175C187.998 462.727 188.027 462.041 188.444 461.623ZM191.244 458.967C191.691 458.549 192.376 458.579 192.792 458.997C193.209 459.445 193.18 460.131 192.763 460.549C192.316 460.966 191.631 460.937 191.214 460.519C190.767 460.071 190.797 459.385 191.244 458.967ZM193.805 456.52C194.252 456.102 194.937 456.132 195.354 456.55C195.771 456.998 195.741 457.684 195.324 458.102C194.877 458.519 194.192 458.49 193.775 458.072C193.358 457.654 193.388 456.908 193.805 456.52ZM196.515 453.924C196.962 453.506 197.647 453.536 198.064 453.954C198.481 454.401 198.451 455.088 198.034 455.506C197.587 455.923 196.902 455.894 196.485 455.476C196.069 455.028 196.098 454.342 196.515 453.924ZM199.106 451.477C199.553 451.059 200.238 451.089 200.655 451.507C201.072 451.955 201.042 452.641 200.625 453.059C200.178 453.476 199.493 453.447 199.076 453.029C198.66 452.611 198.689 451.895 199.106 451.477ZM201.846 448.881C202.293 448.463 202.978 448.493 203.395 448.911C203.812 449.358 203.782 450.045 203.365 450.463C202.918 450.88 202.233 450.85 201.816 450.433C201.399 449.985 201.399 449.299 201.846 448.881ZM204.437 446.404C204.884 445.986 205.569 446.016 205.986 446.434C206.403 446.882 206.373 447.568 205.956 447.986C205.509 448.404 204.824 448.374 204.407 447.956C203.961 447.508 203.991 446.822 204.437 446.404ZM207.147 443.838C207.594 443.42 208.279 443.45 208.696 443.868C209.113 444.315 209.083 445.002 208.666 445.419C208.22 445.837 207.535 445.807 207.118 445.39C206.671 444.942 206.701 444.256 207.147 443.838ZM209.709 441.391C210.155 440.973 210.84 441.003 211.257 441.421C211.674 441.868 211.645 442.555 211.228 442.973C210.781 443.39 210.096 443.36 209.679 442.943C209.262 442.495 209.292 441.779 209.709 441.391ZM212.508 438.735C212.955 438.317 213.64 438.347 214.057 438.765C214.474 439.213 214.444 439.899 214.027 440.317C213.58 440.735 212.895 440.705 212.478 440.287C212.061 439.839 212.061 439.153 212.508 438.735ZM215.099 436.258C215.546 435.841 216.231 435.87 216.648 436.288C217.065 436.736 217.035 437.422 216.618 437.84C216.171 438.258 215.486 438.228 215.069 437.81C214.623 437.363 214.653 436.676 215.099 436.258ZM217.809 433.692C218.256 433.274 218.941 433.304 219.358 433.722C219.775 434.17 219.745 434.856 219.328 435.274C218.882 435.691 218.197 435.662 217.78 435.244C217.333 434.796 217.363 434.11 217.809 433.692ZM220.371 431.245C220.817 430.827 221.502 430.857 221.919 431.275C222.336 431.723 222.306 432.409 221.89 432.827C221.443 433.245 220.758 433.215 220.341 432.797C219.924 432.349 219.954 431.663 220.371 431.245ZM223.17 428.589C223.617 428.172 224.302 428.201 224.719 428.619C225.136 429.067 225.106 429.753 224.689 430.171C224.242 430.589 223.557 430.559 223.14 430.141C222.723 429.693 222.753 429.007 223.17 428.589ZM225.761 426.113C226.208 425.695 226.893 425.725 227.31 426.142C227.727 426.59 227.697 427.276 227.28 427.694C226.833 428.112 226.148 428.082 225.731 427.664C225.314 427.217 225.314 426.53 225.761 426.113ZM228.471 423.546C228.918 423.129 229.603 423.158 230.02 423.576C230.437 424.024 230.407 424.71 229.99 425.128C229.544 425.546 228.859 425.516 228.442 425.098C228.025 424.65 228.025 423.964 228.471 423.546ZM231.062 421.099C231.509 420.682 232.194 420.711 232.611 421.129C233.028 421.577 232.998 422.263 232.581 422.681C232.135 423.099 231.45 423.069 231.033 422.651C230.616 422.174 230.616 421.487 231.062 421.099ZM233.832 418.444C234.279 418.026 234.964 418.056 235.381 418.473C235.798 418.921 235.768 419.607 235.351 420.025C234.904 420.443 234.219 420.413 233.802 419.995C233.385 419.548 233.415 418.861 233.832 418.444ZM236.423 415.967C236.87 415.549 237.555 415.579 237.972 415.997C238.389 416.444 238.359 417.131 237.942 417.548C237.495 417.966 236.81 417.936 236.393 417.519C235.976 417.071 235.976 416.385 236.423 415.967ZM239.133 413.401C239.58 412.983 240.265 413.013 240.682 413.43C241.099 413.878 241.069 414.564 240.652 414.982C240.206 415.4 239.521 415.37 239.104 414.952C238.687 414.505 238.687 413.818 239.133 413.401ZM241.724 410.954C242.171 410.536 242.856 410.566 243.273 410.983C243.69 411.431 243.66 412.117 243.243 412.535C242.797 412.953 242.112 412.923 241.695 412.505C241.278 412.058 241.278 411.342 241.724 410.954ZM244.435 408.357C244.881 407.94 245.566 407.97 245.983 408.387C246.4 408.835 246.37 409.521 245.953 409.939C245.507 410.357 244.822 410.327 244.405 409.909C243.988 409.462 244.018 408.775 244.435 408.357ZM247.026 405.881C247.472 405.463 248.157 405.493 248.574 405.911C248.991 406.358 248.961 407.044 248.544 407.462C248.098 407.88 247.413 407.85 246.996 407.432C246.579 406.985 246.609 406.298 247.026 405.881ZM249.736 403.314C250.182 402.897 250.867 402.927 251.284 403.344C251.701 403.792 251.672 404.478 251.255 404.896C250.808 405.314 250.123 405.284 249.706 404.866C249.289 404.419 249.319 403.732 249.736 403.314ZM252.327 400.838C252.774 400.42 253.459 400.45 253.875 400.868C254.292 401.315 254.263 402.001 253.846 402.419C253.399 402.837 252.714 402.807 252.297 402.389C251.88 401.942 251.88 401.255 252.327 400.838ZM255.097 398.212C255.543 397.794 256.228 397.824 256.645 398.242C257.062 398.689 257.032 399.375 256.615 399.793C256.169 400.211 255.484 400.181 255.067 399.763C254.65 399.316 254.68 398.629 255.097 398.212ZM257.688 395.735C258.134 395.317 258.819 395.347 259.236 395.765C259.653 396.212 259.623 396.899 259.206 397.316C258.76 397.734 258.075 397.704 257.658 397.287C257.241 396.839 257.271 396.153 257.688 395.735ZM260.398 393.169C260.844 392.751 261.529 392.781 261.946 393.198C262.363 393.646 262.334 394.332 261.917 394.75C261.47 395.168 260.785 395.138 260.368 394.72C259.951 394.273 259.981 393.586 260.398 393.169ZM262.989 390.692C263.436 390.274 264.12 390.304 264.537 390.722C264.954 391.169 264.925 391.856 264.508 392.273C264.061 392.691 263.376 392.661 262.959 392.244C262.542 391.796 262.572 391.11 262.989 390.692ZM265.759 388.066C266.205 387.648 266.89 387.678 267.307 388.096C267.724 388.543 267.694 389.23 267.277 389.647C266.831 390.065 266.146 390.035 265.729 389.618C265.312 389.17 265.312 388.484 265.759 388.066ZM268.35 385.619C268.796 385.201 269.481 385.231 269.898 385.649C270.315 386.067 270.285 386.783 269.868 387.201C269.422 387.618 268.737 387.588 268.32 387.171C267.903 386.723 267.903 386.037 268.35 385.619ZM271.06 383.053C271.506 382.635 272.191 382.665 272.608 383.083C273.025 383.53 272.996 384.216 272.579 384.634C272.132 385.052 271.447 385.022 271.03 384.604C270.583 384.157 270.613 383.441 271.06 383.053ZM273.651 380.576C274.097 380.158 274.782 380.188 275.199 380.606C275.616 381.053 275.587 381.74 275.17 382.157C274.723 382.575 274.038 382.545 273.621 382.128C273.174 381.68 273.204 380.994 273.651 380.576ZM276.42 377.92C276.867 377.502 277.552 377.532 277.969 377.95C278.386 378.398 278.356 379.084 277.939 379.502C277.493 379.919 276.808 379.89 276.391 379.472C275.974 379.024 275.974 378.338 276.42 377.92ZM279.012 375.473C279.458 375.055 280.143 375.085 280.56 375.503C280.977 375.951 280.947 376.637 280.53 377.055C280.084 377.472 279.399 377.443 278.982 377.025C278.565 376.577 278.565 375.891 279.012 375.473ZM281.722 372.907C282.168 372.489 282.853 372.519 283.27 372.937C283.687 373.384 283.658 374.071 283.241 374.488C282.794 374.906 282.109 374.876 281.692 374.459C281.275 374.011 281.275 373.325 281.722 372.907ZM284.313 370.43C284.759 370.012 285.444 370.042 285.861 370.46C286.278 370.908 286.249 371.594 285.832 372.012C285.385 372.429 284.7 372.4 284.283 371.982C283.836 371.534 283.866 370.848 284.313 370.43ZM287.023 367.834C287.47 367.416 288.155 367.446 288.572 367.864C288.989 368.311 288.959 368.998 288.542 369.416C288.095 369.833 287.41 369.803 286.993 369.386C286.576 368.938 286.606 368.252 287.023 367.834ZM289.614 365.387C290.061 364.969 290.746 364.999 291.163 365.417C291.58 365.865 291.55 366.551 291.133 366.969C290.686 367.386 290.001 367.357 289.584 366.939C289.167 366.491 289.167 365.805 289.614 365.387ZM292.324 362.821C292.771 362.403 293.456 362.433 293.873 362.851C294.29 363.298 294.26 363.985 293.843 364.402C293.396 364.82 292.711 364.79 292.294 364.372C291.877 363.895 291.877 363.209 292.324 362.821ZM294.915 360.344C295.362 359.926 296.047 359.956 296.464 360.374C296.881 360.821 296.851 361.508 296.434 361.926C295.987 362.343 295.302 362.313 294.885 361.896C294.468 361.448 294.468 360.762 294.915 360.344ZM297.685 357.688C298.132 357.27 298.817 357.3 299.234 357.718C299.65 358.166 299.621 358.852 299.204 359.27C298.757 359.688 298.072 359.658 297.655 359.24C297.238 358.792 297.268 358.106 297.685 357.688ZM300.276 355.241C300.723 354.823 301.408 354.853 301.825 355.271C302.242 355.719 302.212 356.405 301.795 356.823C301.348 357.241 300.663 357.211 300.246 356.793C299.829 356.345 299.859 355.659 300.276 355.241ZM302.986 352.675C303.433 352.257 304.118 352.287 304.535 352.705C304.952 353.152 304.922 353.839 304.505 354.257C304.058 354.674 303.373 354.644 302.956 354.227C302.539 353.779 302.539 353.063 302.986 352.675ZM305.577 350.198C306.024 349.78 306.709 349.81 307.126 350.228C307.543 350.676 307.513 351.362 307.096 351.78C306.649 352.198 305.964 352.168 305.547 351.75C305.13 351.302 305.13 350.616 305.577 350.198ZM308.377 347.542C308.823 347.125 309.508 347.154 309.925 347.572C310.342 348.02 310.312 348.706 309.895 349.124C309.449 349.542 308.764 349.512 308.347 349.094C307.9 348.646 307.93 347.96 308.377 347.542ZM310.938 345.095C311.385 344.678 312.07 344.708 312.487 345.125C312.903 345.573 312.874 346.259 312.457 346.677C312.01 347.095 311.325 347.065 310.908 346.647C310.491 346.2 310.521 345.513 310.938 345.095ZM313.648 342.499C314.095 342.082 314.78 342.111 315.197 342.529C315.614 342.977 315.584 343.663 315.167 344.081C314.72 344.499 314.035 344.469 313.618 344.051C313.201 343.603 313.231 342.917 313.648 342.499ZM316.239 340.052C316.686 339.635 317.371 339.664 317.788 340.082C318.205 340.53 318.175 341.216 317.758 341.634C317.311 342.052 316.626 342.022 316.209 341.604C315.792 341.157 315.822 340.47 316.239 340.052ZM319.039 337.397C319.485 336.979 320.17 337.009 320.587 337.426C321.004 337.874 320.974 338.56 320.557 338.978C320.111 339.396 319.426 339.366 319.009 338.948C318.562 338.501 318.592 337.814 319.039 337.397ZM321.63 334.95C322.076 334.532 322.761 334.562 323.178 334.98C323.595 335.427 323.565 336.113 323.149 336.531C322.702 336.949 322.017 336.919 321.6 336.501C321.153 336.054 321.183 335.367 321.63 334.95ZM324.31 332.354C324.757 331.936 325.442 331.966 325.859 332.383C326.276 332.831 326.246 333.517 325.829 333.935C325.382 334.353 324.697 334.323 324.28 333.905C323.863 333.458 323.893 332.771 324.31 332.354ZM326.901 329.907C327.348 329.489 328.033 329.519 328.45 329.936C328.867 330.384 328.837 331.07 328.42 331.488C327.973 331.906 327.288 331.876 326.871 331.458C326.454 331.011 326.484 330.324 326.901 329.907ZM329.641 327.31C330.088 326.893 330.773 326.923 331.19 327.34C331.607 327.788 331.577 328.474 331.16 328.892C330.713 329.31 330.028 329.28 329.611 328.862C329.194 328.415 329.194 327.728 329.641 327.31ZM332.232 324.864C332.679 324.446 333.364 324.476 333.781 324.893C334.198 325.341 334.168 326.027 333.751 326.445C333.304 326.863 332.619 326.833 332.202 326.415C331.785 325.968 331.785 325.251 332.232 324.864ZM334.942 322.267C335.389 321.85 336.074 321.88 336.491 322.297C336.908 322.745 336.878 323.431 336.461 323.849C336.014 324.267 335.329 324.237 334.912 323.819C334.466 323.372 334.495 322.685 334.942 322.267ZM337.533 319.821C337.98 319.403 338.665 319.433 339.082 319.85C339.499 320.298 339.469 320.984 339.052 321.402C338.605 321.82 337.92 321.79 337.503 321.372C337.057 320.925 337.086 320.238 337.533 319.821ZM340.303 317.165C340.75 316.747 341.435 316.777 341.852 317.195C342.269 317.642 342.239 318.328 341.822 318.746C341.375 319.164 340.69 319.134 340.273 318.716C339.856 318.269 339.856 317.582 340.303 317.165ZM342.894 314.718C343.341 314.3 344.026 314.33 344.443 314.748C344.86 315.195 344.83 315.882 344.413 316.299C343.966 316.717 343.281 316.687 342.864 316.269C342.447 315.822 342.447 315.136 342.894 314.718ZM345.604 312.122C346.051 311.704 346.736 311.734 347.153 312.151C347.57 312.599 347.54 313.285 347.123 313.703C346.676 314.121 345.991 314.091 345.574 313.673C345.157 313.226 345.157 312.539 345.604 312.122ZM348.195 309.675C348.642 309.257 349.327 309.287 349.744 309.705C350.161 310.152 350.131 310.838 349.714 311.256C349.267 311.674 348.582 311.644 348.165 311.226C347.719 310.779 347.748 310.092 348.195 309.675ZM176.651 464.965C177.097 464.547 177.782 464.577 178.199 464.995C178.616 465.443 178.586 466.129 178.169 466.547C177.723 466.964 177.038 466.935 176.621 466.517C176.204 466.069 176.204 465.383 176.651 464.965ZM179.242 462.518C179.688 462.1 180.373 462.13 180.79 462.548C181.207 462.996 181.177 463.682 180.761 464.1C180.314 464.517 179.629 464.488 179.212 464.07C178.795 463.622 178.795 462.936 179.242 462.518ZM181.952 459.952C182.399 459.534 183.084 459.564 183.5 459.982C183.917 460.429 183.888 461.116 183.471 461.533C183.024 461.951 182.339 461.921 181.922 461.504C181.505 461.056 181.505 460.37 181.952 459.952ZM184.543 457.475C184.99 457.057 185.675 457.087 186.092 457.505C186.508 457.953 186.479 458.639 186.062 459.057C185.615 459.474 184.93 459.445 184.513 459.027C184.066 458.579 184.096 457.893 184.543 457.475ZM187.313 454.849C187.759 454.431 188.444 454.461 188.861 454.879C189.278 455.327 189.248 456.013 188.831 456.431C188.385 456.848 187.7 456.819 187.283 456.401C186.866 455.923 186.866 455.237 187.313 454.849ZM189.904 452.372C190.35 451.955 191.035 451.984 191.452 452.402C191.869 452.85 191.839 453.536 191.423 453.954C190.976 454.372 190.291 454.342 189.874 453.924C189.457 453.476 189.457 452.79 189.904 452.372ZM192.614 449.806C193.061 449.388 193.746 449.418 194.162 449.836C194.579 450.283 194.55 450.97 194.133 451.388C193.686 451.805 193.001 451.776 192.584 451.358C192.167 450.91 192.167 450.224 192.614 449.806ZM195.205 447.329C195.652 446.911 196.337 446.941 196.754 447.359C197.17 447.807 197.141 448.493 196.724 448.911C196.277 449.329 195.592 449.299 195.175 448.881C194.728 448.433 194.758 447.747 195.205 447.329ZM197.915 444.733C198.362 444.315 199.047 444.345 199.464 444.763C199.881 445.211 199.851 445.897 199.434 446.315C198.987 446.732 198.302 446.703 197.885 446.285C197.468 445.837 197.498 445.151 197.915 444.733ZM200.506 442.286C200.953 441.868 201.638 441.898 202.055 442.316C202.472 442.764 202.442 443.45 202.025 443.868C201.578 444.286 200.893 444.256 200.476 443.838C200.059 443.39 200.089 442.704 200.506 442.286ZM203.216 439.72C203.663 439.302 204.348 439.332 204.765 439.75C205.182 440.197 205.152 440.884 204.735 441.301C204.288 441.719 203.603 441.689 203.186 441.272C202.769 440.824 202.769 440.108 203.216 439.72ZM205.807 437.243C206.254 436.825 206.939 436.855 207.356 437.273C207.773 437.721 207.743 438.407 207.326 438.825C206.879 439.242 206.194 439.213 205.777 438.795C205.361 438.347 205.361 437.661 205.807 437.243ZM208.577 434.587C209.024 434.17 209.709 434.199 210.126 434.617C210.543 435.065 210.513 435.751 210.096 436.169C209.649 436.587 208.964 436.557 208.547 436.139C208.13 435.691 208.16 435.005 208.577 434.587ZM211.168 432.14C211.615 431.723 212.3 431.752 212.717 432.17C213.134 432.618 213.104 433.304 212.687 433.722C212.24 434.14 211.555 434.11 211.138 433.692C210.721 433.245 210.751 432.558 211.168 432.14ZM213.878 429.574C214.325 429.156 215.01 429.186 215.427 429.604C215.844 430.052 215.814 430.738 215.397 431.156C214.95 431.573 214.265 431.544 213.848 431.126C213.431 430.678 213.461 429.992 213.878 429.574ZM216.469 427.097C216.916 426.68 217.601 426.709 218.018 427.127C218.435 427.575 218.405 428.261 217.988 428.679C217.541 429.097 216.856 429.067 216.439 428.649C216.022 428.201 216.022 427.515 216.469 427.097ZM219.269 424.442C219.715 424.024 220.4 424.054 220.817 424.471C221.234 424.919 221.205 425.605 220.788 426.023C220.341 426.441 219.656 426.411 219.239 425.993C218.792 425.546 218.822 424.859 219.269 424.442ZM221.86 421.995C222.306 421.577 222.991 421.607 223.408 422.024C223.825 422.472 223.796 423.158 223.379 423.576C222.932 423.994 222.247 423.964 221.83 423.546C221.383 423.099 221.413 422.412 221.86 421.995ZM224.54 419.398C224.987 418.981 225.672 419.011 226.089 419.428C226.506 419.876 226.476 420.562 226.059 420.98C225.612 421.398 224.927 421.368 224.51 420.95C224.093 420.503 224.123 419.816 224.54 419.398ZM227.131 416.952C227.578 416.534 228.263 416.564 228.68 416.981C229.097 417.429 229.067 418.115 228.65 418.533C228.203 418.951 227.518 418.921 227.101 418.503C226.684 418.056 226.714 417.369 227.131 416.952ZM229.931 414.296C230.377 413.878 231.062 413.908 231.479 414.326C231.896 414.773 231.867 415.46 231.45 415.877C231.003 416.295 230.318 416.265 229.901 415.847C229.484 415.4 229.484 414.714 229.931 414.296ZM232.522 411.849C232.968 411.431 233.653 411.461 234.07 411.879C234.487 412.326 234.458 413.013 234.041 413.43C233.594 413.848 232.909 413.818 232.492 413.401C232.045 412.953 232.075 412.267 232.522 411.849ZM235.202 409.283C235.649 408.865 236.334 408.895 236.751 409.312C237.168 409.76 237.138 410.446 236.721 410.864C236.274 411.282 235.589 411.252 235.172 410.834C234.755 410.357 234.785 409.67 235.202 409.283ZM237.793 406.806C238.24 406.388 238.925 406.418 239.342 406.836C239.759 407.283 239.729 407.97 239.312 408.387C238.865 408.805 238.18 408.775 237.763 408.357C237.346 407.91 237.376 407.224 237.793 406.806ZM240.533 404.21C240.98 403.792 241.665 403.822 242.082 404.239C242.499 404.687 242.469 405.373 242.052 405.791C241.605 406.209 240.92 406.179 240.503 405.761C240.086 405.314 240.086 404.627 240.533 404.21ZM243.124 401.763C243.571 401.345 244.256 401.375 244.673 401.793C245.09 402.24 245.06 402.927 244.643 403.344C244.196 403.762 243.511 403.732 243.094 403.314C242.677 402.867 242.677 402.18 243.124 401.763ZM245.834 399.167C246.281 398.749 246.966 398.779 247.383 399.196C247.8 399.644 247.77 400.33 247.353 400.748C246.906 401.166 246.221 401.136 245.805 400.718C245.388 400.271 245.388 399.584 245.834 399.167ZM248.425 396.72C248.872 396.302 249.557 396.332 249.974 396.75C250.391 397.197 250.361 397.883 249.944 398.301C249.498 398.719 248.813 398.689 248.396 398.271C247.949 397.824 247.979 397.137 248.425 396.72ZM251.195 394.064C251.642 393.646 252.327 393.676 252.744 394.094C253.161 394.541 253.131 395.228 252.714 395.645C252.267 396.063 251.582 396.033 251.165 395.616C250.748 395.168 250.748 394.482 251.195 394.064ZM253.786 391.617C254.233 391.199 254.918 391.229 255.335 391.647C255.752 392.094 255.722 392.781 255.305 393.198C254.858 393.616 254.173 393.586 253.756 393.169C253.339 392.721 253.339 392.035 253.786 391.617ZM256.496 389.021C256.943 388.603 257.628 388.633 258.045 389.051C258.462 389.498 258.432 390.185 258.015 390.602C257.568 391.02 256.883 390.99 256.467 390.573C256.05 390.125 256.05 389.439 256.496 389.021ZM259.087 386.574C259.534 386.156 260.219 386.186 260.636 386.604C261.053 387.051 261.023 387.738 260.606 388.155C260.159 388.573 259.474 388.543 259.058 388.126C258.611 387.678 258.641 386.992 259.087 386.574ZM261.827 383.948C262.274 383.53 262.959 383.56 263.376 383.978C263.793 384.425 263.763 385.112 263.346 385.529C262.899 385.947 262.214 385.917 261.797 385.5C261.381 385.052 261.41 384.366 261.827 383.948ZM264.418 381.471C264.865 381.053 265.55 381.083 265.967 381.501C266.384 381.949 266.354 382.635 265.937 383.053C265.49 383.47 264.805 383.441 264.389 383.023C263.972 382.575 264.001 381.889 264.418 381.471ZM267.128 378.905C267.575 378.487 268.26 378.517 268.677 378.935C269.094 379.382 269.064 380.069 268.647 380.486C268.201 380.904 267.516 380.874 267.099 380.457C266.682 380.009 266.712 379.323 267.128 378.905ZM269.72 376.458C270.166 376.04 270.851 376.07 271.268 376.488C271.685 376.935 271.655 377.622 271.238 378.039C270.792 378.457 270.107 378.427 269.69 378.01C269.273 377.562 269.273 376.876 269.72 376.458ZM272.489 373.802C272.936 373.384 273.621 373.414 274.038 373.832C274.455 374.28 274.425 374.966 274.008 375.384C273.561 375.801 272.876 375.772 272.459 375.354C272.043 374.906 272.072 374.22 272.489 373.802ZM275.08 371.325C275.527 370.908 276.212 370.937 276.629 371.355C277.046 371.803 277.016 372.489 276.599 372.907C276.152 373.325 275.467 373.295 275.051 372.877C274.634 372.429 274.663 371.743 275.08 371.325ZM277.79 368.759C278.237 368.341 278.922 368.371 279.339 368.789C279.756 369.236 279.726 369.923 279.309 370.341C278.863 370.758 278.178 370.729 277.761 370.311C277.344 369.863 277.374 369.177 277.79 368.759ZM280.381 366.312C280.828 365.894 281.513 365.924 281.93 366.342C282.347 366.79 282.317 367.476 281.9 367.894C281.454 368.311 280.769 368.282 280.352 367.864C279.935 367.416 279.965 366.73 280.381 366.312ZM283.121 363.716C283.568 363.298 284.253 363.328 284.67 363.746C285.087 364.193 285.057 364.88 284.64 365.298C284.194 365.715 283.509 365.685 283.092 365.268C282.675 364.82 282.675 364.134 283.121 363.716ZM285.712 361.239C286.159 360.821 286.844 360.851 287.261 361.269C287.678 361.717 287.648 362.403 287.231 362.821C286.785 363.239 286.1 363.209 285.683 362.791C285.236 362.343 285.266 361.657 285.712 361.239ZM288.393 358.673C288.84 358.255 289.525 358.285 289.942 358.703C290.358 359.15 290.329 359.837 289.912 360.254C289.465 360.672 288.78 360.642 288.363 360.225C287.946 359.777 287.976 359.091 288.393 358.673ZM290.984 356.226C291.431 355.808 292.116 355.838 292.533 356.256C292.95 356.703 292.92 357.39 292.503 357.808C292.056 358.225 291.371 358.195 290.954 357.778C290.537 357.3 290.567 356.614 290.984 356.226ZM293.783 353.57C294.23 353.152 294.915 353.182 295.332 353.6C295.749 354.048 295.719 354.734 295.302 355.152C294.856 355.57 294.171 355.54 293.754 355.122C293.337 354.674 293.337 353.988 293.783 353.57ZM296.374 351.093C296.821 350.676 297.506 350.706 297.923 351.123C298.34 351.571 298.31 352.257 297.893 352.675C297.447 353.093 296.762 353.063 296.345 352.645C295.898 352.198 295.928 351.511 296.374 351.093ZM299.085 348.527C299.531 348.109 300.216 348.139 300.633 348.557C301.05 349.005 301.02 349.691 300.603 350.109C300.157 350.526 299.472 350.497 299.055 350.079C298.608 349.631 298.638 348.945 299.085 348.527ZM301.646 346.08C302.093 345.662 302.778 345.692 303.195 346.11C303.611 346.558 303.582 347.244 303.165 347.662C302.718 348.08 302.033 348.05 301.616 347.632C301.199 347.184 301.229 346.468 301.646 346.08ZM304.445 343.424C304.892 343.007 305.577 343.036 305.994 343.454C306.411 343.902 306.381 344.588 305.964 345.006C305.518 345.424 304.833 345.394 304.416 344.976C303.999 344.528 303.999 343.842 304.445 343.424ZM307.036 340.948C307.483 340.53 308.168 340.56 308.585 340.977C309.002 341.425 308.972 342.111 308.555 342.529C308.109 342.947 307.424 342.917 307.007 342.499C306.59 342.052 306.59 341.365 307.036 340.948ZM309.747 338.381C310.193 337.964 310.878 337.993 311.295 338.411C311.712 338.859 311.682 339.545 311.265 339.963C310.819 340.381 310.134 340.351 309.717 339.933C309.3 339.485 309.3 338.799 309.747 338.381ZM312.338 335.905C312.784 335.487 313.469 335.517 313.886 335.934C314.303 336.382 314.273 337.068 313.857 337.486C313.41 337.904 312.725 337.874 312.308 337.456C311.891 337.009 311.891 336.322 312.338 335.905ZM315.107 333.279C315.554 332.861 316.239 332.891 316.656 333.308C317.073 333.756 317.043 334.442 316.626 334.86C316.179 335.278 315.495 335.248 315.078 334.83C314.661 334.383 314.69 333.696 315.107 333.279ZM317.698 330.802C318.145 330.384 318.83 330.414 319.247 330.832C319.664 331.279 319.634 331.966 319.217 332.383C318.771 332.801 318.086 332.771 317.669 332.354C317.252 331.906 317.252 331.22 317.698 330.802ZM320.409 328.236C320.855 327.818 321.54 327.848 321.957 328.265C322.374 328.713 322.344 329.399 321.927 329.817C321.481 330.235 320.796 330.205 320.379 329.787C319.962 329.34 319.962 328.653 320.409 328.236ZM323 325.789C323.446 325.371 324.131 325.401 324.548 325.818C324.965 326.266 324.935 326.952 324.518 327.37C324.072 327.788 323.387 327.758 322.97 327.34C322.553 326.863 322.553 326.177 323 325.789ZM325.71 323.192C326.156 322.775 326.841 322.805 327.258 323.222C327.675 323.67 327.646 324.356 327.229 324.774C326.782 325.192 326.097 325.162 325.68 324.744C325.263 324.297 325.293 323.58 325.71 323.192ZM328.301 320.716C328.748 320.298 329.433 320.328 329.849 320.746C330.266 321.193 330.237 321.88 329.82 322.297C329.373 322.715 328.688 322.685 328.271 322.267C327.854 321.82 327.884 321.133 328.301 320.716ZM331.011 318.149C331.458 317.732 332.143 317.762 332.56 318.179C332.977 318.627 332.947 319.313 332.53 319.731C332.083 320.149 331.398 320.119 330.981 319.701C330.564 319.254 330.594 318.567 331.011 318.149ZM333.602 315.673C334.049 315.255 334.734 315.285 335.151 315.703C335.568 316.15 335.538 316.836 335.121 317.254C334.674 317.672 333.989 317.642 333.572 317.224C333.155 316.777 333.155 316.09 333.602 315.673ZM336.372 313.047C336.818 312.629 337.503 312.659 337.92 313.077C338.337 313.524 338.308 314.21 337.891 314.628C337.444 315.046 336.759 315.016 336.342 314.598C335.925 314.151 335.955 313.435 336.372 313.047ZM338.963 310.57C339.409 310.152 340.094 310.182 340.511 310.6C340.928 311.047 340.899 311.734 340.482 312.151C340.035 312.569 339.35 312.539 338.933 312.122C338.516 311.674 338.546 310.988 338.963 310.57ZM341.673 308.004C342.12 307.586 342.805 307.616 343.222 308.033C343.639 308.481 343.609 309.167 343.192 309.585C342.745 310.003 342.06 309.973 341.643 309.555C341.226 309.108 341.256 308.421 341.673 308.004ZM344.264 305.527C344.711 305.109 345.396 305.139 345.813 305.557C346.23 306.004 346.2 306.691 345.783 307.108C345.336 307.526 344.651 307.496 344.234 307.079C343.817 306.631 343.847 305.945 344.264 305.527ZM137.338 439.75C137.845 439.272 138.679 439.272 139.155 439.809C139.632 440.317 139.632 441.152 139.095 441.63C138.589 442.107 137.755 442.107 137.279 441.57C136.802 441.063 136.832 440.257 137.338 439.75ZM140.555 436.706C141.061 436.229 141.895 436.229 142.371 436.766C142.848 437.273 142.848 438.109 142.312 438.586C141.806 439.063 140.972 439.063 140.495 438.526C140.019 438.019 140.048 437.183 140.555 436.706ZM143.622 433.782C144.129 433.304 144.963 433.304 145.439 433.841C145.916 434.349 145.916 435.184 145.379 435.662C144.873 436.139 144.039 436.139 143.563 435.602C143.086 435.095 143.116 434.289 143.622 433.782ZM146.928 430.648C147.434 430.171 148.268 430.171 148.745 430.708C149.221 431.215 149.221 432.051 148.685 432.528C148.179 433.006 147.345 433.006 146.869 432.469C146.392 431.961 146.422 431.126 146.928 430.648ZM149.996 427.724C150.502 427.247 151.336 427.247 151.812 427.784C152.289 428.291 152.289 429.127 151.753 429.604C151.247 430.081 150.413 430.081 149.936 429.544C149.46 429.037 149.489 428.201 149.996 427.724ZM153.212 424.65C153.718 424.173 154.552 424.173 155.029 424.71C155.505 425.217 155.505 426.053 154.969 426.53C154.463 427.008 153.629 427.008 153.153 426.471C152.676 425.963 152.706 425.158 153.212 424.65ZM156.309 421.726C156.816 421.249 157.65 421.249 158.126 421.786C158.603 422.293 158.603 423.129 158.067 423.606C157.56 424.083 156.726 424.083 156.25 423.546C155.773 423.039 155.773 422.233 156.309 421.726ZM159.526 418.652C160.032 418.175 160.866 418.175 161.343 418.712C161.819 419.219 161.819 420.055 161.283 420.532C160.777 421.01 159.943 421.01 159.466 420.473C158.99 419.965 159.02 419.16 159.526 418.652ZM162.623 415.728C163.13 415.251 163.963 415.251 164.44 415.788C164.916 416.295 164.916 417.131 164.38 417.608C163.874 418.086 163.04 418.086 162.564 417.548C162.057 417.041 162.087 416.235 162.623 415.728ZM165.81 412.684C166.316 412.207 167.15 412.207 167.627 412.744C168.103 413.251 168.103 414.087 167.567 414.564C167.061 415.042 166.227 415.042 165.75 414.505C165.274 413.997 165.304 413.162 165.81 412.684ZM168.907 409.76C169.414 409.283 170.247 409.283 170.724 409.82C171.201 410.327 171.201 411.162 170.664 411.64C170.158 412.117 169.324 412.117 168.848 411.58C168.371 411.073 168.371 410.237 168.907 409.76ZM172.213 406.597C172.719 406.119 173.553 406.119 174.03 406.657C174.506 407.164 174.506 407.999 173.97 408.477C173.464 408.954 172.63 408.954 172.154 408.417C171.677 407.91 171.677 407.104 172.213 406.597ZM175.281 403.673C175.787 403.195 176.621 403.195 177.097 403.732C177.574 404.239 177.574 405.075 177.038 405.552C176.531 406.03 175.698 406.03 175.221 405.493C174.745 404.986 174.745 404.18 175.281 403.673ZM178.497 400.629C179.003 400.151 179.837 400.151 180.314 400.688C180.79 401.196 180.79 402.031 180.254 402.509C179.748 402.986 178.914 402.986 178.438 402.449C177.961 401.942 177.961 401.106 178.497 400.629ZM181.565 397.704C182.071 397.227 182.905 397.227 183.381 397.764C183.858 398.271 183.858 399.107 183.322 399.584C182.815 400.062 181.982 400.062 181.505 399.525C181.029 399.017 181.058 398.182 181.565 397.704ZM184.87 394.541C185.377 394.064 186.211 394.064 186.687 394.601C187.164 395.108 187.164 395.944 186.628 396.421C186.121 396.899 185.287 396.899 184.811 396.362C184.334 395.854 184.364 395.049 184.87 394.541ZM187.938 391.617C188.444 391.139 189.278 391.139 189.755 391.677C190.231 392.184 190.231 393.019 189.695 393.497C189.189 393.974 188.355 393.974 187.878 393.437C187.402 392.93 187.432 392.124 187.938 391.617ZM191.154 388.573C191.661 388.096 192.495 388.096 192.971 388.633C193.448 389.14 193.448 389.976 192.912 390.453C192.405 390.931 191.571 390.931 191.095 390.393C190.618 389.886 190.648 389.051 191.154 388.573ZM194.222 385.649C194.728 385.171 195.562 385.171 196.039 385.708C196.515 386.216 196.515 387.051 195.979 387.529C195.473 388.006 194.639 388.006 194.162 387.469C193.686 386.962 193.716 386.126 194.222 385.649ZM197.528 382.516C198.034 382.038 198.868 382.038 199.345 382.575C199.821 383.083 199.821 383.918 199.285 384.396C198.779 384.873 197.945 384.873 197.468 384.336C196.992 383.829 197.022 382.993 197.528 382.516ZM200.625 379.591C201.131 379.114 201.965 379.114 202.442 379.651C202.918 380.158 202.918 380.994 202.382 381.471C201.876 381.949 201.042 381.949 200.566 381.411C200.089 380.904 200.089 380.069 200.625 379.591ZM203.842 376.518C204.348 376.04 205.182 376.04 205.658 376.577C206.135 377.085 206.135 377.92 205.599 378.398C205.092 378.875 204.259 378.875 203.782 378.338C203.276 377.831 203.306 377.025 203.842 376.518ZM206.909 373.593C207.415 373.116 208.249 373.116 208.726 373.653C209.202 374.16 209.202 374.996 208.666 375.473C208.16 375.951 207.326 375.951 206.85 375.413C206.373 374.906 206.373 374.101 206.909 373.593ZM210.126 370.52C210.632 370.042 211.466 370.042 211.942 370.579C212.419 371.087 212.419 371.922 211.883 372.4C211.376 372.877 210.543 372.877 210.066 372.34C209.59 371.833 209.619 371.027 210.126 370.52ZM213.223 367.595C213.729 367.118 214.563 367.118 215.04 367.655C215.516 368.162 215.516 368.998 214.98 369.475C214.474 369.953 213.64 369.953 213.163 369.416C212.687 368.908 212.687 368.103 213.223 367.595ZM216.439 364.552C216.946 364.074 217.78 364.074 218.256 364.611C218.733 365.118 218.733 365.954 218.197 366.431C217.69 366.909 216.856 366.909 216.38 366.372C215.903 365.865 215.903 365.029 216.439 364.552ZM219.507 361.627C220.013 361.15 220.847 361.15 221.324 361.687C221.8 362.194 221.8 363.03 221.264 363.507C220.758 363.985 219.924 363.985 219.447 363.447C218.971 362.94 218.971 362.105 219.507 361.627ZM222.813 358.464C223.319 357.987 224.153 357.987 224.63 358.524C225.106 359.031 225.106 359.867 224.57 360.344C224.064 360.821 223.23 360.821 222.753 360.284C222.277 359.777 222.277 358.971 222.813 358.464ZM225.88 355.54C226.387 355.062 227.221 355.062 227.697 355.599C228.174 356.107 228.174 356.942 227.637 357.42C227.131 357.897 226.297 357.897 225.821 357.36C225.344 356.853 225.374 356.047 225.88 355.54ZM229.097 352.496C229.603 352.018 230.437 352.018 230.914 352.556C231.39 353.063 231.39 353.898 230.854 354.376C230.348 354.853 229.514 354.853 229.037 354.316C228.561 353.809 228.561 352.973 229.097 352.496ZM232.164 349.572C232.671 349.094 233.505 349.094 233.981 349.631C234.458 350.139 234.458 350.974 233.921 351.452C233.415 351.929 232.581 351.929 232.105 351.392C231.628 350.885 231.658 350.049 232.164 349.572ZM235.44 346.438C235.947 345.961 236.781 345.961 237.257 346.498C237.734 347.005 237.734 347.841 237.198 348.318C236.691 348.796 235.857 348.796 235.381 348.259C234.904 347.751 234.934 346.946 235.44 346.438ZM238.508 343.514C239.014 343.036 239.848 343.036 240.325 343.574C240.801 344.081 240.801 344.916 240.265 345.394C239.759 345.871 238.925 345.871 238.448 345.334C237.972 344.827 238.002 344.021 238.508 343.514ZM241.724 340.47C242.231 339.993 243.065 339.993 243.541 340.53C244.018 341.037 244.018 341.873 243.482 342.35C242.975 342.828 242.141 342.828 241.665 342.29C241.188 341.783 241.218 340.948 241.724 340.47ZM244.792 337.546C245.298 337.068 246.132 337.068 246.609 337.605C247.085 338.113 247.085 338.948 246.549 339.426C246.043 339.903 245.209 339.903 244.732 339.366C244.256 338.859 244.286 338.023 244.792 337.546ZM248.098 334.413C248.604 333.935 249.438 333.935 249.914 334.472C250.391 334.98 250.391 335.815 249.855 336.292C249.349 336.77 248.515 336.77 248.038 336.233C247.562 335.726 247.591 334.89 248.098 334.413ZM251.195 331.488C251.701 331.011 252.535 331.011 253.012 331.548C253.488 332.055 253.488 332.891 252.952 333.368C252.446 333.846 251.612 333.846 251.136 333.308C250.659 332.801 250.659 331.966 251.195 331.488ZM254.412 328.415C254.918 327.937 255.752 327.937 256.228 328.474C256.705 328.982 256.705 329.817 256.169 330.295C255.662 330.772 254.828 330.772 254.352 330.235C253.846 329.728 253.875 328.922 254.412 328.415ZM257.479 325.49C257.985 325.013 258.819 325.013 259.296 325.55C259.772 326.057 259.772 326.893 259.236 327.37C258.73 327.848 257.896 327.848 257.42 327.31C256.943 326.803 256.943 325.998 257.479 325.49ZM260.696 322.417C261.202 321.939 262.036 321.939 262.512 322.476C262.989 322.984 262.989 323.819 262.453 324.297C261.946 324.774 261.113 324.774 260.636 324.237C260.159 323.73 260.189 322.924 260.696 322.417ZM263.793 319.492C264.299 319.015 265.133 319.015 265.61 319.552C266.086 320.059 266.086 320.895 265.55 321.372C265.044 321.85 264.21 321.85 263.733 321.313C263.257 320.805 263.257 320 263.793 319.492ZM267.009 316.449C267.516 315.971 268.35 315.971 268.826 316.508C269.303 317.015 269.303 317.851 268.766 318.328C268.26 318.806 267.426 318.806 266.95 318.269C266.473 317.762 266.473 316.926 267.009 316.449ZM270.077 313.524C270.583 313.047 271.417 313.047 271.894 313.584C272.37 314.091 272.37 314.927 271.834 315.404C271.328 315.882 270.494 315.882 270.017 315.344C269.541 314.807 269.541 314.002 270.077 313.524ZM273.383 310.361C273.889 309.884 274.723 309.884 275.199 310.421C275.676 310.928 275.676 311.764 275.14 312.241C274.634 312.718 273.8 312.718 273.323 312.181C272.847 311.674 272.847 310.868 273.383 310.361ZM276.45 307.437C276.957 306.959 277.79 306.959 278.267 307.496C278.743 308.004 278.743 308.839 278.207 309.317C277.701 309.794 276.867 309.794 276.391 309.257C275.914 308.75 275.944 307.944 276.45 307.437ZM279.667 304.393C280.173 303.915 281.007 303.915 281.483 304.453C281.96 304.96 281.96 305.795 281.424 306.273C280.918 306.75 280.084 306.75 279.607 306.213C279.131 305.706 279.131 304.87 279.667 304.393ZM282.734 301.469C283.241 300.991 284.074 300.991 284.551 301.528C285.027 302.036 285.027 302.871 284.491 303.349C283.985 303.826 283.151 303.826 282.675 303.289C282.198 302.782 282.228 301.946 282.734 301.469ZM286.04 298.305C286.546 297.828 287.38 297.828 287.857 298.365C288.333 298.872 288.333 299.708 287.797 300.185C287.291 300.663 286.457 300.663 285.981 300.126C285.504 299.618 285.534 298.813 286.04 298.305ZM289.108 295.381C289.614 294.904 290.448 294.904 290.924 295.441C291.401 295.948 291.401 296.784 290.865 297.261C290.358 297.738 289.525 297.738 289.048 297.201C288.572 296.694 288.601 295.888 289.108 295.381ZM292.324 292.337C292.83 291.86 293.664 291.86 294.141 292.397C294.617 292.904 294.617 293.74 294.081 294.217C293.575 294.695 292.741 294.695 292.265 294.158C291.788 293.65 291.818 292.815 292.324 292.337ZM295.421 289.413C295.928 288.936 296.762 288.936 297.238 289.473C297.715 289.98 297.715 290.815 297.179 291.293C296.672 291.77 295.838 291.77 295.362 291.233C294.856 290.726 294.885 289.89 295.421 289.413ZM298.697 286.28C299.204 285.802 300.038 285.802 300.514 286.339C300.991 286.847 300.991 287.682 300.455 288.16C299.948 288.637 299.114 288.637 298.638 288.1C298.161 287.593 298.191 286.757 298.697 286.28ZM301.795 283.355C302.301 282.878 303.135 282.878 303.611 283.415C304.088 283.922 304.088 284.758 303.552 285.235C303.046 285.713 302.212 285.713 301.735 285.176C301.259 284.668 301.259 283.833 301.795 283.355ZM305.011 280.282C305.518 279.804 306.351 279.804 306.828 280.341C307.304 280.849 307.304 281.684 306.768 282.162C306.262 282.639 305.428 282.639 304.952 282.102C304.475 281.595 304.475 280.789 305.011 280.282ZM308.079 277.357C308.585 276.88 309.419 276.88 309.895 277.417C310.372 277.924 310.372 278.76 309.836 279.237C309.33 279.715 308.496 279.715 308.019 279.178C307.543 278.67 307.543 277.865 308.079 277.357ZM311.325 274.284C311.831 273.806 312.665 273.806 313.142 274.343C313.618 274.851 313.618 275.686 313.082 276.164C312.576 276.641 311.742 276.641 311.265 276.104C310.759 275.597 310.789 274.791 311.325 274.284ZM314.393 271.359C314.899 270.882 315.733 270.882 316.209 271.419C316.686 271.926 316.686 272.762 316.15 273.239C315.643 273.717 314.81 273.717 314.333 273.18C313.857 272.672 313.856 271.867 314.393 271.359ZM317.609 268.316C318.115 267.838 318.949 267.838 319.426 268.375C319.902 268.883 319.902 269.718 319.366 270.196C318.86 270.673 318.026 270.673 317.549 270.136C317.073 269.599 317.073 268.793 317.609 268.316ZM320.677 265.391C321.183 264.914 322.017 264.914 322.493 265.451C322.97 265.988 322.97 266.794 322.434 267.271C321.927 267.749 321.094 267.749 320.617 267.212C320.141 266.704 320.141 265.869 320.677 265.391ZM323.982 262.228C324.489 261.751 325.323 261.751 325.799 262.288C326.276 262.795 326.276 263.631 325.74 264.108C325.233 264.586 324.399 264.586 323.923 264.048C323.446 263.541 323.446 262.735 323.982 262.228ZM327.05 259.304C327.556 258.826 328.39 258.826 328.867 259.363C329.343 259.871 329.343 260.706 328.807 261.184C328.301 261.661 327.467 261.661 326.99 261.124C326.514 260.617 326.544 259.811 327.05 259.304ZM330.266 256.26C330.773 255.783 331.607 255.783 332.083 256.32C332.56 256.827 332.56 257.663 332.024 258.14C331.517 258.617 330.683 258.617 330.207 258.08C329.73 257.573 329.76 256.738 330.266 256.26ZM333.334 253.336C333.84 252.858 334.674 252.858 335.151 253.395C335.627 253.933 335.627 254.738 335.091 255.216C334.585 255.693 333.751 255.693 333.274 255.156C332.798 254.649 332.828 253.813 333.334 253.336ZM135.075 446.613C135.581 446.136 136.415 446.136 136.892 446.673C137.368 447.18 137.368 448.016 136.832 448.493C136.326 448.971 135.492 448.971 135.015 448.433C134.539 447.926 134.539 447.091 135.075 446.613ZM138.142 443.689C138.649 443.211 139.483 443.211 139.959 443.748C140.436 444.256 140.436 445.091 139.9 445.569C139.393 446.046 138.559 446.046 138.083 445.509C137.606 445.002 137.606 444.166 138.142 443.689ZM141.359 440.615C141.865 440.138 142.699 440.138 143.176 440.675C143.652 441.182 143.652 442.018 143.116 442.495C142.61 442.973 141.776 442.973 141.299 442.435C140.823 441.928 140.823 441.122 141.359 440.615ZM144.426 437.691C144.933 437.213 145.767 437.213 146.243 437.75C146.72 438.258 146.72 439.093 146.184 439.571C145.677 440.048 144.843 440.048 144.367 439.511C143.89 439.004 143.92 438.198 144.426 437.691ZM147.732 434.558C148.239 434.08 149.072 434.08 149.549 434.617C150.025 435.124 150.025 435.96 149.489 436.437C148.983 436.915 148.149 436.915 147.673 436.378C147.196 435.871 147.226 435.065 147.732 434.558ZM150.8 431.633C151.306 431.156 152.14 431.156 152.617 431.693C153.093 432.2 153.093 433.036 152.557 433.513C152.051 433.991 151.217 433.991 150.74 433.453C150.264 432.946 150.294 432.14 150.8 431.633ZM154.016 428.589C154.523 428.112 155.356 428.112 155.833 428.649C156.309 429.156 156.309 429.992 155.773 430.469C155.267 430.947 154.433 430.947 153.957 430.41C153.48 429.902 153.51 429.067 154.016 428.589ZM157.084 425.665C157.59 425.188 158.424 425.188 158.901 425.725C159.377 426.232 159.377 427.068 158.841 427.545C158.335 428.022 157.501 428.022 157.024 427.485C156.548 426.978 156.578 426.142 157.084 425.665ZM160.33 422.591C160.836 422.114 161.67 422.114 162.147 422.651C162.623 423.158 162.623 423.994 162.087 424.471C161.581 424.949 160.747 424.949 160.27 424.412C159.794 423.875 159.824 423.069 160.33 422.591ZM163.398 419.667C163.904 419.19 164.738 419.19 165.214 419.727C165.691 420.234 165.691 421.07 165.155 421.547C164.648 422.024 163.815 422.024 163.338 421.487C162.862 420.95 162.891 420.145 163.398 419.667ZM166.614 416.593C167.12 416.116 167.954 416.116 168.431 416.653C168.907 417.16 168.907 417.996 168.371 418.473C167.865 418.951 167.031 418.951 166.555 418.414C166.078 417.906 166.108 417.101 166.614 416.593ZM169.682 413.669C170.188 413.192 171.022 413.192 171.498 413.729C171.975 414.236 171.975 415.072 171.439 415.549C170.932 416.027 170.099 416.027 169.622 415.489C169.146 414.982 169.175 414.176 169.682 413.669ZM172.987 410.536C173.494 410.058 174.328 410.058 174.804 410.596C175.281 411.103 175.281 411.938 174.745 412.416C174.238 412.893 173.404 412.893 172.928 412.356C172.451 411.849 172.481 411.013 172.987 410.536ZM176.055 407.611C176.561 407.134 177.395 407.134 177.872 407.671C178.348 408.178 178.348 409.014 177.812 409.491C177.306 409.969 176.472 409.969 175.995 409.432C175.519 408.924 175.549 408.089 176.055 407.611ZM179.271 404.538C179.778 404.06 180.612 404.06 181.088 404.598C181.565 405.105 181.565 405.94 181.029 406.418C180.522 406.895 179.688 406.895 179.212 406.358C178.735 405.851 178.765 405.045 179.271 404.538ZM182.339 401.614C182.845 401.136 183.679 401.136 184.156 401.673C184.632 402.18 184.632 403.016 184.096 403.493C183.59 403.971 182.756 403.971 182.279 403.434C181.803 402.927 181.833 402.121 182.339 401.614ZM185.675 398.48C186.181 398.003 187.015 398.003 187.491 398.54C187.968 399.047 187.968 399.883 187.432 400.36C186.925 400.838 186.092 400.838 185.615 400.301C185.138 399.793 185.138 398.958 185.675 398.48ZM188.742 395.556C189.248 395.078 190.082 395.078 190.559 395.616C191.035 396.123 191.035 396.958 190.499 397.436C189.993 397.913 189.159 397.913 188.683 397.376C188.206 396.869 188.236 396.033 188.742 395.556ZM191.959 392.482C192.465 392.005 193.299 392.005 193.775 392.542C194.252 393.049 194.252 393.885 193.716 394.362C193.209 394.84 192.376 394.84 191.899 394.303C191.423 393.795 191.452 392.99 191.959 392.482ZM195.026 389.558C195.532 389.08 196.366 389.08 196.843 389.618C197.319 390.125 197.319 390.96 196.783 391.438C196.277 391.915 195.443 391.915 194.967 391.378C194.49 390.871 194.52 390.065 195.026 389.558ZM198.332 386.425C198.838 385.947 199.672 385.947 200.149 386.484C200.625 386.992 200.625 387.827 200.089 388.305C199.583 388.782 198.749 388.782 198.272 388.245C197.796 387.738 197.826 386.932 198.332 386.425ZM201.399 383.5C201.906 383.023 202.74 383.023 203.216 383.56C203.693 384.067 203.693 384.903 203.157 385.38C202.65 385.858 201.816 385.858 201.34 385.321C200.863 384.813 200.893 384.008 201.399 383.5ZM204.616 380.457C205.122 379.979 205.956 379.979 206.433 380.516C206.909 381.024 206.909 381.859 206.373 382.337C205.867 382.814 205.033 382.814 204.556 382.277C204.08 381.77 204.11 380.934 204.616 380.457ZM207.684 377.532C208.19 377.055 209.024 377.055 209.5 377.592C209.977 378.099 209.977 378.935 209.441 379.412C208.934 379.89 208.1 379.89 207.624 379.352C207.147 378.845 207.177 378.01 207.684 377.532ZM210.93 374.459C211.436 373.981 212.27 373.981 212.746 374.518C213.223 375.026 213.223 375.861 212.687 376.339C212.181 376.816 211.347 376.816 210.87 376.279C210.394 375.742 210.423 374.936 210.93 374.459ZM213.997 371.534C214.504 371.057 215.338 371.057 215.814 371.594C216.291 372.101 216.291 372.937 215.754 373.414C215.248 373.892 214.414 373.892 213.938 373.354C213.461 372.817 213.491 372.012 213.997 371.534ZM217.214 368.461C217.72 367.983 218.554 367.983 219.03 368.52C219.507 369.028 219.507 369.863 218.971 370.341C218.465 370.818 217.631 370.818 217.154 370.281C216.678 369.774 216.707 368.968 217.214 368.461ZM220.281 365.536C220.788 365.059 221.622 365.059 222.098 365.596C222.575 366.103 222.575 366.939 222.038 367.416C221.532 367.894 220.698 367.894 220.222 367.357C219.745 366.849 219.775 366.044 220.281 365.536ZM223.587 362.403C224.093 361.926 224.927 361.926 225.404 362.463C225.88 362.97 225.88 363.806 225.344 364.283C224.838 364.76 224.004 364.76 223.528 364.223C223.051 363.716 223.081 362.88 223.587 362.403ZM226.655 359.479C227.161 359.001 227.995 359.001 228.471 359.538C228.948 360.046 228.948 360.881 228.412 361.359C227.906 361.836 227.072 361.836 226.595 361.299C226.119 360.792 226.148 359.956 226.655 359.479ZM229.871 356.405C230.377 355.928 231.211 355.928 231.688 356.465C232.164 356.972 232.164 357.808 231.628 358.285C231.122 358.762 230.288 358.762 229.812 358.225C229.335 357.718 229.365 356.912 229.871 356.405ZM232.968 353.481C233.475 353.003 234.309 353.003 234.785 353.54C235.262 354.048 235.262 354.883 234.726 355.361C234.219 355.838 233.385 355.838 232.909 355.301C232.432 354.794 232.432 353.988 232.968 353.481ZM236.245 350.377C236.751 349.9 237.585 349.9 238.061 350.437C238.538 350.944 238.538 351.78 238.002 352.257C237.495 352.735 236.661 352.735 236.185 352.198C235.708 351.69 235.708 350.855 236.245 350.377ZM239.312 347.453C239.818 346.975 240.652 346.975 241.129 347.513C241.605 348.02 241.605 348.855 241.069 349.333C240.563 349.81 239.729 349.81 239.252 349.273C238.776 348.766 238.806 347.93 239.312 347.453ZM242.529 344.379C243.035 343.902 243.869 343.902 244.345 344.439C244.822 344.946 244.822 345.782 244.286 346.259C243.779 346.737 242.945 346.737 242.469 346.2C241.992 345.692 242.022 344.887 242.529 344.379ZM245.596 341.455C246.102 340.977 246.936 340.977 247.413 341.515C247.889 342.022 247.889 342.857 247.353 343.335C246.847 343.812 246.013 343.812 245.536 343.275C245.06 342.768 245.09 341.962 245.596 341.455ZM248.902 338.322C249.408 337.844 250.242 337.844 250.719 338.381C251.195 338.889 251.195 339.724 250.659 340.202C250.153 340.679 249.319 340.679 248.842 340.142C248.366 339.635 248.396 338.829 248.902 338.322ZM251.969 335.397C252.476 334.92 253.31 334.92 253.786 335.457C254.263 335.964 254.263 336.8 253.727 337.277C253.22 337.755 252.386 337.755 251.91 337.218C251.433 336.71 251.463 335.905 251.969 335.397ZM255.186 332.354C255.692 331.876 256.526 331.876 257.003 332.413C257.479 332.921 257.479 333.756 256.943 334.234C256.437 334.711 255.603 334.711 255.126 334.174C254.65 333.667 254.68 332.831 255.186 332.354ZM258.253 329.429C258.76 328.952 259.594 328.952 260.07 329.489C260.547 329.996 260.547 330.832 260.011 331.309C259.504 331.787 258.67 331.787 258.194 331.249C257.717 330.742 257.747 329.907 258.253 329.429ZM261.5 326.356C262.006 325.878 262.84 325.878 263.316 326.415C263.793 326.923 263.793 327.758 263.257 328.236C262.751 328.713 261.917 328.713 261.44 328.176C260.964 327.639 260.993 326.833 261.5 326.356ZM264.567 323.431C265.074 322.954 265.907 322.954 266.384 323.491C266.86 323.998 266.86 324.834 266.324 325.311C265.818 325.789 264.984 325.789 264.508 325.251C264.031 324.714 264.061 323.909 264.567 323.431ZM267.784 320.358C268.29 319.88 269.124 319.88 269.6 320.417C270.077 320.925 270.077 321.76 269.541 322.238C269.035 322.715 268.201 322.715 267.724 322.178C267.248 321.671 267.277 320.865 267.784 320.358ZM270.851 317.433C271.358 316.956 272.191 316.956 272.668 317.493C273.144 318 273.144 318.836 272.608 319.313C272.102 319.791 271.268 319.791 270.792 319.254C270.315 318.746 270.345 317.941 270.851 317.433ZM274.157 314.3C274.663 313.823 275.497 313.823 275.974 314.36C276.45 314.867 276.45 315.703 275.914 316.18C275.408 316.657 274.574 316.657 274.097 316.12C273.621 315.613 273.651 314.777 274.157 314.3ZM277.225 311.376C277.731 310.898 278.565 310.898 279.041 311.435C279.518 311.943 279.518 312.778 278.982 313.256C278.475 313.733 277.642 313.733 277.165 313.196C276.689 312.689 276.718 311.853 277.225 311.376ZM280.441 308.302C280.947 307.825 281.781 307.825 282.258 308.362C282.734 308.869 282.734 309.705 282.198 310.182C281.692 310.659 280.858 310.659 280.381 310.122C279.905 309.615 279.935 308.809 280.441 308.302ZM283.538 305.378C284.045 304.9 284.879 304.9 285.355 305.437C285.832 305.945 285.832 306.78 285.296 307.258C284.789 307.735 283.955 307.735 283.479 307.198C283.002 306.691 283.002 305.885 283.538 305.378ZM286.844 302.244C287.35 301.767 288.184 301.767 288.661 302.304C289.137 302.811 289.137 303.647 288.601 304.124C288.095 304.602 287.261 304.602 286.785 304.065C286.308 303.557 286.308 302.722 286.844 302.244ZM289.912 299.32C290.418 298.843 291.252 298.843 291.728 299.38C292.205 299.887 292.205 300.723 291.669 301.2C291.163 301.677 290.329 301.677 289.852 301.14C289.376 300.633 289.405 299.797 289.912 299.32ZM293.128 296.246C293.634 295.769 294.468 295.769 294.945 296.306C295.421 296.813 295.421 297.649 294.885 298.126C294.379 298.604 293.545 298.604 293.069 298.067C292.592 297.559 292.622 296.754 293.128 296.246ZM296.196 293.322C296.702 292.845 297.536 292.845 298.012 293.382C298.489 293.889 298.489 294.725 297.953 295.202C297.447 295.679 296.613 295.679 296.136 295.142C295.66 294.635 295.689 293.829 296.196 293.322ZM299.502 290.189C300.008 289.711 300.842 289.711 301.318 290.248C301.795 290.756 301.795 291.591 301.259 292.069C300.752 292.546 299.919 292.546 299.442 292.009C298.965 291.502 298.995 290.696 299.502 290.189ZM302.569 287.264C303.075 286.787 303.909 286.787 304.386 287.324C304.862 287.831 304.862 288.667 304.326 289.144C303.82 289.622 302.986 289.622 302.51 289.085C302.033 288.577 302.063 287.772 302.569 287.264ZM305.786 284.221C306.292 283.743 307.126 283.743 307.602 284.28C308.079 284.788 308.079 285.623 307.543 286.101C307.036 286.578 306.203 286.578 305.726 286.041C305.249 285.534 305.279 284.698 305.786 284.221ZM308.853 281.296C309.359 280.819 310.193 280.819 310.67 281.356C311.146 281.863 311.146 282.699 310.61 283.176C310.104 283.654 309.27 283.654 308.794 283.117C308.317 282.609 308.347 281.774 308.853 281.296ZM312.099 278.193C312.606 277.715 313.44 277.715 313.916 278.253C314.393 278.76 314.393 279.595 313.857 280.073C313.35 280.55 312.516 280.55 312.04 280.013C311.563 279.506 311.593 278.7 312.099 278.193ZM315.167 275.298C315.673 274.821 316.507 274.821 316.984 275.358C317.46 275.865 317.46 276.701 316.924 277.178C316.418 277.656 315.584 277.656 315.107 277.119C314.631 276.582 314.661 275.776 315.167 275.298ZM318.383 272.225C318.89 271.747 319.724 271.747 320.2 272.284C320.677 272.792 320.677 273.627 320.141 274.105C319.634 274.582 318.8 274.582 318.324 274.045C317.847 273.538 317.877 272.732 318.383 272.225ZM321.451 269.3C321.957 268.823 322.791 268.823 323.268 269.36C323.744 269.867 323.744 270.703 323.208 271.18C322.702 271.658 321.868 271.658 321.391 271.121C320.915 270.613 320.945 269.808 321.451 269.3ZM324.757 266.167C325.263 265.69 326.097 265.69 326.573 266.227C327.05 266.734 327.05 267.57 326.514 268.047C326.008 268.525 325.174 268.525 324.697 267.987C324.221 267.48 324.25 266.645 324.757 266.167ZM327.854 263.243C328.36 262.765 329.194 262.765 329.671 263.302C330.147 263.81 330.147 264.645 329.611 265.123C329.105 265.6 328.271 265.6 327.794 265.063C327.288 264.556 327.318 263.72 327.854 263.243ZM331.041 260.169C331.547 259.692 332.381 259.692 332.857 260.229C333.334 260.736 333.334 261.572 332.798 262.049C332.292 262.527 331.458 262.527 330.981 261.989C330.505 261.482 330.534 260.676 331.041 260.169ZM334.138 257.245C334.644 256.767 335.478 256.767 335.955 257.304C336.431 257.812 336.431 258.647 335.895 259.125C335.389 259.602 334.555 259.602 334.079 259.065C333.602 258.558 333.602 257.752 334.138 257.245ZM130.399 441.689C130.905 441.212 131.739 441.212 132.216 441.749C132.692 442.256 132.692 443.092 132.156 443.569C131.65 444.047 130.816 444.047 130.34 443.51C129.863 443.002 129.893 442.197 130.399 441.689ZM133.496 438.765C134.003 438.288 134.837 438.288 135.313 438.825C135.79 439.332 135.79 440.168 135.254 440.645C134.747 441.122 133.913 441.122 133.437 440.585C132.96 440.078 132.96 439.272 133.496 438.765ZM136.713 435.721C137.219 435.244 138.053 435.244 138.53 435.781C139.006 436.288 139.006 437.124 138.47 437.601C137.964 438.079 137.13 438.079 136.653 437.542C136.177 437.034 136.177 436.199 136.713 435.721ZM139.78 432.797C140.287 432.319 141.121 432.319 141.597 432.857C142.074 433.364 142.074 434.199 141.538 434.677C141.031 435.154 140.197 435.154 139.721 434.617C139.244 434.11 139.244 433.274 139.78 432.797ZM143.086 429.664C143.593 429.186 144.426 429.186 144.903 429.723C145.379 430.231 145.379 431.066 144.843 431.544C144.337 432.021 143.503 432.021 143.027 431.484C142.55 430.977 142.55 430.141 143.086 429.664ZM146.154 426.739C146.66 426.262 147.494 426.262 147.971 426.799C148.447 427.306 148.447 428.142 147.911 428.619C147.405 429.097 146.571 429.097 146.094 428.56C145.618 428.052 145.648 427.217 146.154 426.739ZM149.37 423.666C149.877 423.188 150.71 423.188 151.187 423.725C151.663 424.233 151.663 425.068 151.127 425.546C150.621 426.023 149.787 426.023 149.311 425.486C148.834 424.979 148.864 424.173 149.37 423.666ZM152.438 420.741C152.944 420.264 153.778 420.264 154.255 420.801C154.731 421.308 154.731 422.144 154.195 422.621C153.689 423.099 152.855 423.099 152.378 422.562C151.902 422.054 151.932 421.249 152.438 420.741ZM155.684 417.668C156.19 417.19 157.024 417.19 157.501 417.727C157.977 418.235 157.977 419.07 157.441 419.548C156.935 420.025 156.101 420.025 155.624 419.488C155.148 418.981 155.148 418.175 155.684 417.668ZM158.752 414.743C159.258 414.266 160.092 414.266 160.568 414.803C161.045 415.31 161.045 416.146 160.509 416.623C160.002 417.101 159.169 417.101 158.692 416.564C158.216 416.056 158.245 415.251 158.752 414.743ZM161.968 411.7C162.474 411.222 163.308 411.222 163.785 411.759C164.261 412.267 164.261 413.102 163.725 413.58C163.219 414.057 162.385 414.057 161.909 413.52C161.432 412.983 161.462 412.177 161.968 411.7ZM165.036 408.775C165.542 408.298 166.376 408.298 166.852 408.835C167.329 409.342 167.329 410.178 166.793 410.655C166.286 411.133 165.453 411.133 164.976 410.596C164.5 410.088 164.529 409.253 165.036 408.775ZM168.341 405.612C168.848 405.135 169.682 405.135 170.158 405.672C170.635 406.179 170.635 407.015 170.099 407.492C169.592 407.97 168.758 407.97 168.282 407.432C167.805 406.925 167.835 406.119 168.341 405.612ZM171.409 402.688C171.915 402.21 172.749 402.21 173.226 402.747C173.702 403.255 173.702 404.09 173.166 404.568C172.66 405.045 171.826 405.045 171.349 404.508C170.873 404.001 170.903 403.195 171.409 402.688ZM174.625 399.644C175.132 399.167 175.966 399.167 176.442 399.704C176.919 400.211 176.919 401.047 176.383 401.524C175.876 402.001 175.042 402.001 174.566 401.464C174.089 400.957 174.119 400.121 174.625 399.644ZM177.693 396.72C178.199 396.242 179.033 396.242 179.51 396.779C179.986 397.287 179.986 398.122 179.45 398.6C178.944 399.077 178.11 399.077 177.633 398.54C177.157 398.033 177.187 397.197 177.693 396.72ZM181.029 393.557C181.535 393.079 182.369 393.079 182.845 393.616C183.322 394.124 183.322 394.959 182.786 395.437C182.279 395.914 181.446 395.914 180.969 395.377C180.493 394.87 180.493 394.064 181.029 393.557ZM184.096 390.632C184.602 390.155 185.436 390.155 185.913 390.692C186.389 391.199 186.389 392.035 185.853 392.512C185.347 392.99 184.513 392.99 184.037 392.452C183.56 391.945 183.56 391.139 184.096 390.632ZM187.313 387.588C187.819 387.111 188.653 387.111 189.129 387.648C189.606 388.155 189.606 388.991 189.07 389.468C188.563 389.946 187.73 389.946 187.253 389.409C186.777 388.901 186.777 388.066 187.313 387.588ZM190.38 384.664C190.886 384.187 191.72 384.187 192.197 384.724C192.673 385.231 192.673 386.067 192.137 386.544C191.631 387.021 190.797 387.021 190.321 386.484C189.844 385.977 189.874 385.142 190.38 384.664ZM193.686 381.531C194.192 381.053 195.026 381.053 195.503 381.59C195.979 382.098 195.979 382.933 195.443 383.411C194.937 383.888 194.103 383.888 193.626 383.351C193.15 382.844 193.15 382.008 193.686 381.531ZM196.754 378.606C197.26 378.129 198.094 378.129 198.57 378.666C199.047 379.173 199.047 380.009 198.511 380.486C198.004 380.964 197.17 380.964 196.694 380.427C196.217 379.919 196.247 379.084 196.754 378.606ZM199.97 375.533C200.476 375.055 201.31 375.055 201.787 375.593C202.263 376.1 202.263 376.935 201.727 377.413C201.221 377.89 200.387 377.89 199.91 377.353C199.434 376.846 199.464 376.04 199.97 375.533ZM203.038 372.608C203.544 372.131 204.378 372.131 204.854 372.668C205.331 373.175 205.331 374.011 204.795 374.488C204.288 374.966 203.454 374.966 202.978 374.429C202.501 373.921 202.531 373.116 203.038 372.608ZM206.284 369.535C206.79 369.057 207.624 369.057 208.1 369.595C208.577 370.102 208.577 370.937 208.041 371.415C207.535 371.892 206.701 371.892 206.224 371.355C205.748 370.848 205.777 370.012 206.284 369.535ZM209.351 366.611C209.858 366.133 210.692 366.133 211.168 366.67C211.645 367.177 211.645 368.013 211.108 368.49C210.602 368.968 209.768 368.968 209.292 368.431C208.815 367.924 208.845 367.118 209.351 366.611ZM212.568 363.567C213.074 363.089 213.908 363.089 214.384 363.626C214.861 364.134 214.861 364.969 214.325 365.447C213.819 365.924 212.985 365.924 212.508 365.387C212.032 364.85 212.061 364.044 212.568 363.567ZM215.635 360.642C216.142 360.165 216.976 360.165 217.452 360.702C217.929 361.209 217.929 362.045 217.392 362.522C216.886 363 216.052 363 215.576 362.463C215.099 361.955 215.129 361.12 215.635 360.642ZM218.941 357.479C219.447 357.002 220.281 357.002 220.758 357.539C221.234 358.046 221.234 358.882 220.698 359.359C220.192 359.837 219.358 359.837 218.882 359.3C218.405 358.792 218.435 357.987 218.941 357.479ZM222.009 354.555C222.515 354.077 223.349 354.077 223.825 354.615C224.302 355.122 224.302 355.957 223.766 356.435C223.26 356.912 222.426 356.912 221.949 356.375C221.473 355.868 221.502 355.062 222.009 354.555ZM225.225 351.511C225.731 351.034 226.565 351.034 227.042 351.571C227.518 352.078 227.518 352.914 226.982 353.391C226.476 353.869 225.642 353.869 225.166 353.331C224.689 352.824 224.719 351.989 225.225 351.511ZM228.293 348.587C228.799 348.109 229.633 348.109 230.109 348.646C230.586 349.154 230.586 349.989 230.05 350.467C229.544 350.944 228.71 350.944 228.233 350.407C227.757 349.9 227.786 349.064 228.293 348.587ZM231.599 345.454C232.105 344.976 232.939 344.976 233.415 345.513C233.892 346.021 233.892 346.856 233.356 347.334C232.849 347.811 232.015 347.811 231.539 347.274C231.062 346.767 231.062 345.961 231.599 345.454ZM234.666 342.529C235.172 342.052 236.006 342.052 236.483 342.589C236.959 343.096 236.959 343.932 236.423 344.409C235.917 344.887 235.083 344.887 234.606 344.349C234.13 343.842 234.13 343.036 234.666 342.529ZM237.883 339.485C238.389 339.008 239.223 339.008 239.699 339.545C240.176 340.052 240.176 340.888 239.64 341.365C239.133 341.843 238.299 341.843 237.823 341.306C237.346 340.798 237.346 339.963 237.883 339.485ZM240.95 336.561C241.456 336.084 242.29 336.084 242.767 336.621C243.243 337.128 243.243 337.964 242.707 338.441C242.201 338.918 241.367 338.918 240.89 338.381C240.414 337.874 240.444 337.039 240.95 336.561ZM244.256 333.428C244.762 332.95 245.596 332.95 246.073 333.487C246.549 333.995 246.549 334.83 246.013 335.308C245.507 335.785 244.673 335.785 244.196 335.248C243.72 334.741 243.72 333.905 244.256 333.428ZM247.323 330.503C247.83 330.026 248.664 330.026 249.14 330.563C249.617 331.07 249.617 331.906 249.081 332.383C248.574 332.861 247.74 332.861 247.264 332.324C246.787 331.816 246.817 330.981 247.323 330.503ZM250.54 327.43C251.046 326.952 251.88 326.952 252.357 327.49C252.833 327.997 252.833 328.832 252.297 329.31C251.791 329.787 250.957 329.787 250.48 329.25C250.004 328.743 250.034 327.937 250.54 327.43ZM253.607 324.505C254.114 324.028 254.948 324.028 255.424 324.565C255.901 325.072 255.901 325.908 255.365 326.385C254.858 326.863 254.024 326.863 253.548 326.326C253.071 325.818 253.101 325.013 253.607 324.505ZM256.854 321.432C257.36 320.954 258.194 320.954 258.67 321.492C259.147 321.999 259.147 322.834 258.611 323.312C258.105 323.789 257.271 323.789 256.794 323.252C256.318 322.745 256.347 321.909 256.854 321.432ZM259.921 318.508C260.428 318.03 261.261 318.03 261.738 318.567C262.214 319.074 262.214 319.91 261.678 320.387C261.172 320.865 260.338 320.865 259.862 320.328C259.385 319.821 259.415 319.015 259.921 318.508ZM263.138 315.464C263.644 314.986 264.478 314.986 264.954 315.523C265.431 316.031 265.431 316.866 264.895 317.344C264.389 317.821 263.555 317.821 263.078 317.284C262.602 316.747 262.631 315.941 263.138 315.464ZM266.205 312.539C266.712 312.062 267.545 312.062 268.022 312.599C268.498 313.106 268.498 313.942 267.962 314.419C267.456 314.897 266.622 314.897 266.146 314.36C265.669 313.852 265.699 313.017 266.205 312.539ZM269.511 309.376C270.017 308.899 270.851 308.899 271.328 309.436C271.804 309.943 271.804 310.779 271.268 311.256C270.762 311.734 269.928 311.734 269.451 311.197C268.975 310.689 269.005 309.884 269.511 309.376ZM272.579 306.452C273.085 305.974 273.919 305.974 274.395 306.512C274.872 307.019 274.872 307.854 274.336 308.332C273.829 308.809 272.996 308.809 272.519 308.272C272.043 307.765 272.072 306.959 272.579 306.452ZM275.795 303.408C276.301 302.931 277.135 302.931 277.612 303.468C278.088 303.975 278.088 304.811 277.552 305.288C277.046 305.766 276.212 305.766 275.735 305.228C275.259 304.721 275.289 303.886 275.795 303.408ZM278.863 300.484C279.369 300.006 280.203 300.006 280.679 300.543C281.156 301.051 281.156 301.886 280.62 302.364C280.113 302.841 279.28 302.841 278.803 302.304C278.327 301.797 278.356 300.961 278.863 300.484ZM282.198 297.321C282.704 296.843 283.538 296.843 284.015 297.38C284.491 297.888 284.491 298.723 283.955 299.201C283.449 299.678 282.615 299.678 282.139 299.141C281.662 298.634 281.662 297.828 282.198 297.321ZM285.266 294.396C285.772 293.919 286.606 293.919 287.082 294.456C287.559 294.963 287.559 295.799 287.023 296.276C286.517 296.754 285.683 296.754 285.206 296.217C284.73 295.709 284.73 294.904 285.266 294.396ZM288.482 291.353C288.988 290.875 289.822 290.875 290.299 291.412C290.775 291.92 290.775 292.755 290.239 293.233C289.733 293.71 288.899 293.71 288.423 293.173C287.946 292.666 287.946 291.83 288.482 291.353ZM291.55 288.428C292.056 287.951 292.89 287.951 293.366 288.488C293.843 288.995 293.843 289.831 293.307 290.308C292.801 290.786 291.967 290.786 291.49 290.248C291.014 289.711 291.043 288.906 291.55 288.428ZM294.856 285.295C295.362 284.818 296.196 284.818 296.672 285.355C297.149 285.862 297.149 286.697 296.613 287.175C296.106 287.652 295.273 287.652 294.796 287.115C294.319 286.578 294.349 285.772 294.856 285.295ZM297.923 282.371C298.429 281.893 299.263 281.893 299.74 282.43C300.216 282.938 300.216 283.773 299.68 284.251C299.174 284.728 298.34 284.728 297.864 284.191C297.387 283.684 297.417 282.848 297.923 282.371ZM301.14 279.297C301.646 278.82 302.48 278.82 302.956 279.357C303.433 279.864 303.433 280.7 302.897 281.177C302.39 281.654 301.557 281.654 301.08 281.117C300.604 280.61 300.633 279.804 301.14 279.297ZM304.207 276.373C304.713 275.895 305.547 275.895 306.024 276.432C306.5 276.94 306.5 277.775 305.964 278.253C305.458 278.73 304.624 278.73 304.148 278.193C303.671 277.686 303.701 276.88 304.207 276.373ZM307.453 273.299C307.96 272.822 308.794 272.822 309.27 273.359C309.747 273.866 309.747 274.702 309.211 275.179C308.704 275.656 307.87 275.656 307.394 275.119C306.917 274.612 306.947 273.776 307.453 273.299ZM310.521 270.375C311.027 269.897 311.861 269.897 312.338 270.434C312.814 270.942 312.814 271.777 312.278 272.255C311.772 272.732 310.938 272.732 310.461 272.195C309.985 271.688 310.015 270.882 310.521 270.375ZM313.737 267.331C314.244 266.853 315.078 266.853 315.554 267.391C316.031 267.898 316.031 268.733 315.495 269.211C314.988 269.688 314.154 269.688 313.678 269.151C313.201 268.614 313.231 267.808 313.737 267.331ZM316.805 264.407C317.311 263.929 318.145 263.929 318.622 264.466C319.098 264.974 319.098 265.809 318.562 266.287C318.056 266.764 317.222 266.764 316.745 266.227C316.269 265.69 316.299 264.884 316.805 264.407ZM320.111 261.243C320.617 260.766 321.451 260.766 321.927 261.303C322.404 261.84 322.404 262.646 321.868 263.123C321.362 263.601 320.528 263.601 320.051 263.064C319.575 262.556 319.604 261.751 320.111 261.243ZM323.178 258.319C323.685 257.842 324.518 257.842 324.995 258.379C325.472 258.886 325.472 259.722 324.935 260.199C324.429 260.676 323.595 260.676 323.119 260.139C322.642 259.632 322.672 258.826 323.178 258.319ZM326.395 255.275C326.901 254.798 327.735 254.798 328.211 255.335C328.688 255.842 328.688 256.678 328.152 257.155C327.646 257.633 326.812 257.633 326.335 257.096C325.859 256.588 325.888 255.753 326.395 255.275ZM329.492 252.351C329.998 251.874 330.832 251.874 331.309 252.411C331.785 252.918 331.785 253.753 331.249 254.231C330.743 254.708 329.909 254.708 329.433 254.171C328.926 253.664 328.956 252.828 329.492 252.351ZM134.271 442.674C134.777 442.197 135.611 442.197 136.087 442.734C136.564 443.241 136.564 444.077 136.028 444.554C135.522 445.032 134.688 445.032 134.211 444.494C133.735 443.987 133.764 443.181 134.271 442.674ZM179.897 465.801C180.344 465.383 181.029 465.413 181.446 465.83C181.862 466.248 181.833 466.964 181.416 467.382C180.969 467.8 180.284 467.77 179.867 467.352C179.45 466.905 179.45 466.218 179.897 465.801Z" fill="#C9DEEF"/>
</g>
<g opacity="0.3" clip-path="url(#clip2_5:950)">
<path fill-rule="evenodd" clip-rule="evenodd" d="M165.486 444.018C156.092 444.018 148.545 451.615 148.545 460.901C148.545 470.263 156.169 477.784 165.486 477.784C174.88 477.784 182.427 470.187 182.427 460.901C182.427 451.538 174.803 444.018 165.486 444.018Z" fill="#089DEE"/>
<path fill-rule="evenodd" clip-rule="evenodd" d="M165.486 453.073C161.174 453.073 157.709 456.527 157.709 460.824C157.709 465.122 161.174 468.575 165.486 468.575C169.798 468.575 173.263 465.122 173.263 460.824C173.263 456.603 169.798 453.073 165.486 453.073Z" fill="#F0F8FD"/>
<path d="M169.105 437.034H160.943V446.013H169.105V437.034Z" fill="#089DEE"/>
<path d="M169.105 475.021H160.943V484H169.105V475.021Z" fill="#089DEE"/>
<path d="M178.755 469.935L171.807 474.203L176.534 481.847L183.482 477.579L178.755 469.935Z" fill="#089DEE"/>
<path d="M152.443 469.992L147.716 477.636L154.665 481.904L159.392 474.261L152.443 469.992Z" fill="#089DEE"/>
<path d="M176.505 439.602L171.778 447.246L178.727 451.514L183.454 443.871L176.505 439.602Z" fill="#089DEE"/>
<path d="M154.638 439.56L147.689 443.828L152.417 451.471L159.365 447.203L154.638 439.56Z" fill="#089DEE"/>
<path d="M150.996 456.35L141.994 456.713L142.324 464.841L151.327 464.478L150.996 456.35Z" fill="#089DEE"/>
<path d="M189.422 456.349L180.419 456.713L180.75 464.841L189.752 464.477L189.422 456.349Z" fill="#089DEE"/>
<path fill-rule="evenodd" clip-rule="evenodd" d="M198.828 423.911C192.206 423.911 186.816 429.283 186.816 435.883C186.816 442.483 192.206 447.855 198.828 447.855C205.451 447.855 210.841 442.483 210.841 435.883C210.841 429.283 205.451 423.911 198.828 423.911Z" fill="#089DEE"/>
<path fill-rule="evenodd" clip-rule="evenodd" d="M198.828 430.358C195.748 430.358 193.284 432.814 193.284 435.883C193.284 438.953 195.748 441.409 198.828 441.409C201.908 441.409 204.373 438.953 204.373 435.883C204.296 432.814 201.831 430.358 198.828 430.358Z" fill="#F0F8FD"/>
<path d="M201.369 419H195.594V425.37H201.369V419Z" fill="#089DEE"/>
<path d="M201.369 445.859H195.594V452.229H201.369V445.859Z" fill="#089DEE"/>
<path d="M189.54 442.334L186.187 447.756L191.103 450.776L194.457 445.354L189.54 442.334Z" fill="#089DEE"/>
<path d="M191.178 420.783L186.261 423.803L189.615 429.225L194.531 426.205L191.178 420.783Z" fill="#089DEE"/>
<path d="M188.547 432.688L182.161 432.946L182.394 438.697L188.781 438.439L188.547 432.688Z" fill="#089DEE"/>
<path d="M215.807 432.687L209.421 432.944L209.654 438.695L216.04 438.438L215.807 432.687Z" fill="#089DEE"/>
</g>
<defs>
<linearGradient id="paint0_linear_5:950" x1="322.417" y1="242.275" x2="215.981" y2="409.924" gradientUnits="userSpaceOnUse">
<stop stop-color="white" stop-opacity="0"/>
<stop offset="1" stop-color="#82A9FF" stop-opacity="0.21"/>
</linearGradient>
<linearGradient id="paint1_linear_5:950" x1="259.94" y1="505.578" x2="260.198" y2="470.583" gradientUnits="userSpaceOnUse">
<stop stop-color="white" stop-opacity="0"/>
<stop offset="1" stop-color="#82A9FF" stop-opacity="0.21"/>
</linearGradient>
<linearGradient id="paint2_linear_5:950" x1="123.126" y1="567.524" x2="499.129" y2="188.35" gradientUnits="userSpaceOnUse">
<stop stop-color="#F3F7FF"/>
<stop offset="1" stop-color="#DEEEFE"/>
</linearGradient>
<linearGradient id="paint3_linear_5:950" x1="145" y1="333.498" x2="365.005" y2="333.498" gradientUnits="userSpaceOnUse">
<stop stop-color="#010101"/>
<stop offset="1" stop-color="white"/>
</linearGradient>
<clipPath id="clip0_5:950">
<rect width="421" height="310" fill="white" transform="translate(55 215)"/>
</clipPath>
<clipPath id="clip1_5:950">
<rect width="46.237" height="34.8953" fill="white" transform="translate(63.1118 443.037)"/>
</clipPath>
<clipPath id="clip2_5:950">
<rect width="74" height="65" fill="white" transform="translate(142 419)"/>
</clipPath>
</defs>
</svg>
